<svg xmlns="http://www.w3.org/2000/svg" xmlns:xlink="http://www.w3.org/1999/xlink" width="39" height="39.006" viewBox="0 0 39 39.006">
  <defs>
    <linearGradient id="linear-gradient" x1="-3.354" y1="9.509" x2="-2.992" y2="9.769" gradientUnits="objectBoundingBox">
      <stop offset="0" stop-color="#f8f6fb"/>
      <stop offset="1" stop-color="#efdcfb"/>
    </linearGradient>
    <linearGradient id="linear-gradient-2" x1="-44.697" y1="11.904" x2="-46.137" y2="12.648" gradientUnits="objectBoundingBox">
      <stop offset="0" stop-color="#efdcfb" stop-opacity="0"/>
      <stop offset="0.486" stop-color="#baaad6" stop-opacity="0.486"/>
      <stop offset="1" stop-color="#8679b2"/>
    </linearGradient>
    <linearGradient id="linear-gradient-3" x1="1.201" y1="1.231" x2="0.14" y2="0.01" xlink:href="#linear-gradient-2"/>
    <radialGradient id="radial-gradient" cx="0.107" cy="0.079" r="0.893" gradientTransform="matrix(0.701, -0.707, 0.701, 0.707, -2.995, 0.253)" gradientUnits="objectBoundingBox">
      <stop offset="0" stop-color="#ffd945"/>
      <stop offset="0.311" stop-color="#ffd643"/>
      <stop offset="0.558" stop-color="#ffcc3d"/>
      <stop offset="0.783" stop-color="#fb3"/>
      <stop offset="0.994" stop-color="#ffa425"/>
      <stop offset="1" stop-color="#ffa325"/>
    </radialGradient>
    <linearGradient id="linear-gradient-4" x1="0.572" y1="0.484" x2="2.285" y2="0.976" gradientUnits="objectBoundingBox">
      <stop offset="0" stop-color="#f82814" stop-opacity="0"/>
      <stop offset="1" stop-color="#c0272d"/>
    </linearGradient>
    <linearGradient id="linear-gradient-5" x1="-89.44" y1="-117.741" x2="-88.055" y2="-115.822" gradientUnits="objectBoundingBox">
      <stop offset="0" stop-color="#f82814" stop-opacity="0"/>
      <stop offset="0.245" stop-color="#f12817" stop-opacity="0.243"/>
      <stop offset="0.605" stop-color="#dd2820" stop-opacity="0.604"/>
      <stop offset="1" stop-color="#c0272d"/>
    </linearGradient>
    <linearGradient id="linear-gradient-6" x1="-110.491" y1="-151.842" x2="-109.107" y2="-149.922" xlink:href="#linear-gradient-5"/>
    <linearGradient id="linear-gradient-7" x1="-189.99" y1="-254.373" x2="-188.605" y2="-252.453" xlink:href="#linear-gradient-5"/>
    <linearGradient id="linear-gradient-8" x1="-156.258" y1="-93.117" x2="-154.875" y2="-91.197" xlink:href="#linear-gradient-5"/>
    <linearGradient id="linear-gradient-9" x1="-194.937" y1="-119.01" x2="-193.553" y2="-117.091" xlink:href="#linear-gradient-5"/>
    <linearGradient id="linear-gradient-10" x1="-327.49" y1="-201.472" x2="-326.106" y2="-199.553" xlink:href="#linear-gradient-5"/>
    <linearGradient id="linear-gradient-11" x1="-156.191" y1="-65.042" x2="-154.807" y2="-63.122" xlink:href="#linear-gradient-5"/>
    <linearGradient id="linear-gradient-12" x1="-194.852" y1="-83.447" x2="-193.468" y2="-81.528" xlink:href="#linear-gradient-5"/>
    <linearGradient id="linear-gradient-13" x1="-327.348" y1="-142.485" x2="-325.964" y2="-140.566" xlink:href="#linear-gradient-5"/>
    <linearGradient id="linear-gradient-14" x1="-95.907" y1="67.575" x2="-95.278" y2="68.38" gradientUnits="objectBoundingBox">
      <stop offset="0" stop-color="#ffd945"/>
      <stop offset="0.304" stop-color="#ffcd3e"/>
      <stop offset="0.856" stop-color="#ffad2b"/>
      <stop offset="1" stop-color="#ffa325"/>
    </linearGradient>
    <linearGradient id="linear-gradient-15" x1="-119.777" y1="-8.687" x2="-119.332" y2="-7.547" xlink:href="#linear-gradient-14"/>
    <linearGradient id="linear-gradient-16" x1="0.166" y1="-0.104" x2="0.717" y2="0.893" xlink:href="#linear-gradient-14"/>
    <linearGradient id="linear-gradient-17" x1="0.166" y1="-0.105" x2="0.717" y2="0.893" xlink:href="#linear-gradient-14"/>
  </defs>
  <g id="_012-fried_chicken" data-name="012-fried chicken" transform="translate(-0.04 0)">
    <g id="Grupo_2773" data-name="Grupo 2773" transform="translate(23.349 -0.001)">
      <path id="Trazado_2048" data-name="Trazado 2048" d="M319.292,11.541a4.163,4.163,0,0,0-3.178-7.086,4.164,4.164,0,1,0-8,1.38,2.533,2.533,0,0,1-.525,2.772L304.8,11.4l4.376,4.376,2.787-2.787a2.533,2.533,0,0,1,2.772-.525,4.165,4.165,0,0,0,4.558-.917Z" transform="translate(-304.798 -0.074)" fill="url(#linear-gradient)"/>
      <path id="Trazado_2049" data-name="Trazado 2049" d="M345.174,7.107a4.152,4.152,0,0,0,3.162,1.213,4.162,4.162,0,0,1,3.939-3.939,4.163,4.163,0,1,0-7.1,2.726Z" transform="translate(-340.959 0.001)" fill="url(#linear-gradient-2)"/>
    </g>
    <path id="Trazado_2050" data-name="Trazado 2050" d="M309.173,140.471l1.8-1.8-2.3-2.3a1.067,1.067,0,0,0-1.062-.348.937.937,0,0,1-.71-.113l-.005,0-.358-.358a1.763,1.763,0,0,0-.753-.445l-.988.988Z" transform="translate(-281.448 -124.774)" fill="url(#linear-gradient-3)"/>
    <path id="Trazado_2051" data-name="Trazado 2051" d="M3.488,139.018l-.007.047a2.822,2.822,0,0,1-1.3,1.962l-.022.014a2.822,2.822,0,0,0-1.248,3.106l.012.048a2.823,2.823,0,0,1-.392,2.283l0,.007A2.823,2.823,0,0,0,.7,149.872l.091.109a2.614,2.614,0,0,1,.576,2.084h0a2.7,2.7,0,0,0,1.663,2.929l.1.041A2.822,2.822,0,0,1,4.7,156.6l.006.015a2.835,2.835,0,0,0,2.977,1.749,2.822,2.822,0,0,1,2.142.637l.038.032a2.822,2.822,0,0,0,3.386.176l.009-.006a2.822,2.822,0,0,1,2.282-.391l.048.012a2.823,2.823,0,0,0,3.106-1.247l.014-.023a2.823,2.823,0,0,1,1.962-1.3l.047-.007a2.822,2.822,0,0,0,2.35-2.35l.007-.047a2.823,2.823,0,0,1,1.3-1.962l.023-.014a2.822,2.822,0,0,0,1.247-3.106l-.012-.048a2.822,2.822,0,0,1,.392-2.282l.005-.008a3.006,3.006,0,0,0,.079-2.157,1.915,1.915,0,0,1,.928-2.073l.02-.013A1.373,1.373,0,0,0,27.618,141a.918.918,0,0,1,.316-.745l.927-.819a.937.937,0,0,0,.089-1.332.938.938,0,0,1-.178-1l.453-1.082a1.115,1.115,0,0,0-1.028-1.546.5.5,0,0,1-.5-.414l-.224-1.242a1.084,1.084,0,0,0-1.314-.876.937.937,0,0,1-1.018-.421l-.055-.055a1.767,1.767,0,0,0-2.078-.312.693.693,0,0,1-.815-.122,1.107,1.107,0,0,0-1.716.124l-.447.6a.938.938,0,0,1-.664.373l-.714.067a2.015,2.015,0,0,0-1.164.512l-.007.006a2.222,2.222,0,0,1-2,.575,2.821,2.821,0,0,0-2.185.415l-.007,0a2.821,2.821,0,0,1-2.282.392l-.049-.013a2.823,2.823,0,0,0-3.106,1.247l-.014.023a2.823,2.823,0,0,1-1.962,1.3l-.047.007a2.823,2.823,0,0,0-2.35,2.35Z" transform="translate(-0.002 -120.689)" fill="url(#radial-gradient)"/>
    <path id="Trazado_2052" data-name="Trazado 2052" d="M44.812,150.872a1.115,1.115,0,0,0-1.028-1.546.5.5,0,0,1-.5-.414l-.224-1.242a1.084,1.084,0,0,0-1.314-.876.941.941,0,0,1-.172.024l-.2.477a.938.938,0,0,0,.178,1,.937.937,0,0,1-.089,1.332l-.927.819a.918.918,0,0,0-.316.745,1.373,1.373,0,0,1-.558,1.188l-.02.013a1.915,1.915,0,0,0-.928,2.073,3.006,3.006,0,0,1-.079,2.157l-.005.008a2.822,2.822,0,0,0-.392,2.282l.012.048a2.822,2.822,0,0,1-1.247,3.106l-.023.014a2.823,2.823,0,0,0-1.3,1.962l-.007.047a2.822,2.822,0,0,1-2.35,2.35l-.047.007a2.823,2.823,0,0,0-1.962,1.3l-.014.023A2.823,2.823,0,0,1,28.2,169.02l-.048-.012a2.823,2.823,0,0,0-2.282.391l-.009.006a2.822,2.822,0,0,1-3.386-.176l-.038-.032a2.822,2.822,0,0,0-2.142-.637,2.835,2.835,0,0,1-2.977-1.749l-.006-.015a2.821,2.821,0,0,0-.345-.62,2.612,2.612,0,0,1-.01.739h0a2.7,2.7,0,0,0,1.663,2.929l.1.041a2.822,2.822,0,0,1,1.569,1.569l.006.015a2.835,2.835,0,0,0,2.977,1.749,2.822,2.822,0,0,1,2.142.637l.038.031a2.822,2.822,0,0,0,3.386.176l.009-.006a2.822,2.822,0,0,1,2.282-.391l.048.012a2.823,2.823,0,0,0,3.106-1.247l.014-.023a2.823,2.823,0,0,1,1.962-1.3l.047-.007a2.822,2.822,0,0,0,2.35-2.35l.007-.047a2.823,2.823,0,0,1,1.3-1.962l.023-.014a2.822,2.822,0,0,0,1.247-3.106l-.012-.048a2.822,2.822,0,0,1,.392-2.282l.005-.008a3.006,3.006,0,0,0,.079-2.157,1.915,1.915,0,0,1,.928-2.073l.02-.013a1.373,1.373,0,0,0,.558-1.188.918.918,0,0,1,.316-.745l.927-.819a.937.937,0,0,0,.089-1.332.938.938,0,0,1-.178-1Z" transform="translate(-15.588 -135.539)" fill="url(#linear-gradient-4)"/>
    <g id="Grupo_2777" data-name="Grupo 2777" transform="translate(3.118 12.696)" opacity="0.6">
      <g id="Grupo_2774" data-name="Grupo 2774" transform="translate(0 15.29)">
        <circle id="Elipse_164" data-name="Elipse 164" cx="0.837" cy="0.837" r="0.837" transform="translate(2.117)" fill="url(#linear-gradient-5)"/>
        <circle id="Elipse_165" data-name="Elipse 165" cx="0.661" cy="0.661" r="0.661" transform="translate(0 1.534)" fill="url(#linear-gradient-6)"/>
        <circle id="Elipse_166" data-name="Elipse 166" cx="0.398" cy="0.398" r="0.398" transform="translate(2.678 3.462)" fill="url(#linear-gradient-7)"/>
      </g>
      <g id="Grupo_2775" data-name="Grupo 2775" transform="translate(4.389 17.402)">
        <circle id="Elipse_167" data-name="Elipse 167" cx="0.619" cy="0.619" r="0.619" transform="translate(1.748 0.464)" fill="url(#linear-gradient-8)"/>
        <circle id="Elipse_168" data-name="Elipse 168" cx="0.488" cy="0.488" r="0.488" fill="url(#linear-gradient-9)"/>
        <circle id="Elipse_169" data-name="Elipse 169" cx="0.294" cy="0.294" r="0.294" transform="translate(0.467 2.345)" fill="url(#linear-gradient-10)"/>
      </g>
      <g id="Grupo_2776" data-name="Grupo 2776" transform="translate(17.682)">
        <circle id="Elipse_170" data-name="Elipse 170" cx="0.619" cy="0.619" r="0.619" transform="translate(1.748 0.464)" fill="url(#linear-gradient-11)"/>
        <circle id="Elipse_171" data-name="Elipse 171" cx="0.488" cy="0.488" r="0.488" fill="url(#linear-gradient-12)"/>
        <circle id="Elipse_172" data-name="Elipse 172" cx="0.294" cy="0.294" r="0.294" transform="translate(0.467 2.345)" fill="url(#linear-gradient-13)"/>
      </g>
    </g>
    <path id="Trazado_2053" data-name="Trazado 2053" d="M357.026,289c.668,0,.668,2.419,0,2.419a1.209,1.209,0,1,1,0-2.419Z" transform="translate(-328.565 -266.898)" fill="url(#linear-gradient-14)"/>
    <path id="Trazado_2054" data-name="Trazado 2054" d="M1.907,195.015c0-.668,2.419-.668,2.419,0a1.209,1.209,0,1,1-2.419,0Z" transform="translate(-1.724 -179.637)" fill="url(#linear-gradient-15)"/>
    <circle id="Elipse_173" data-name="Elipse 173" cx="0.577" cy="0.577" r="0.577" transform="translate(29.381 20.937)" fill="url(#linear-gradient-16)"/>
    <circle id="Elipse_174" data-name="Elipse 174" cx="0.577" cy="0.577" r="0.577" transform="translate(0.04 33.081)" fill="url(#linear-gradient-17)"/>
    <circle id="Elipse_175" data-name="Elipse 175" cx="0.866" cy="0.866" r="0.866" transform="translate(28.804 25.646)" fill="url(#linear-gradient-17)"/>
    <circle id="Elipse_176" data-name="Elipse 176" cx="0.866" cy="0.866" r="0.866" transform="translate(0.465 18.043)" fill="url(#linear-gradient-17)"/>
  </g>
</svg>
