<svg id="_016-barbecue" data-name="016-barbecue" xmlns="http://www.w3.org/2000/svg" xmlns:xlink="http://www.w3.org/1999/xlink" width="31.067" height="28.24" viewBox="0 0 31.067 28.24">
  <defs>
    <linearGradient id="linear-gradient" x1="3.033" y1="-7.255" x2="3.44" y2="-7.255" gradientUnits="objectBoundingBox">
      <stop offset="0" stop-color="#a57c52"/>
      <stop offset="0.134" stop-color="#a26c4a"/>
      <stop offset="0.516" stop-color="#994336"/>
      <stop offset="0.817" stop-color="#942a2a"/>
      <stop offset="1" stop-color="#922125"/>
    </linearGradient>
    <linearGradient id="linear-gradient-2" x1="-3.09" y1="-8.138" x2="-2.943" y2="-7.565" gradientUnits="objectBoundingBox">
      <stop offset="0" stop-color="#ffdecf"/>
      <stop offset="0.379" stop-color="#fdc4b0"/>
      <stop offset="0.766" stop-color="#fbae97"/>
      <stop offset="1" stop-color="#faa68e"/>
    </linearGradient>
    <linearGradient id="linear-gradient-3" x1="-3.38" y1="-9.295" x2="-2.788" y2="-8.255" xlink:href="#linear-gradient-2"/>
    <linearGradient id="linear-gradient-4" x1="1.105" y1="1.551" x2="0.175" y2="0.246" gradientUnits="objectBoundingBox">
      <stop offset="0" stop-color="#f82814" stop-opacity="0"/>
      <stop offset="0.245" stop-color="#f12817" stop-opacity="0.243"/>
      <stop offset="0.605" stop-color="#dd2820" stop-opacity="0.604"/>
      <stop offset="1" stop-color="#c0272d"/>
    </linearGradient>
    <linearGradient id="linear-gradient-5" x1="0.668" y1="0.332" x2="0.409" y2="0.591" gradientUnits="objectBoundingBox">
      <stop offset="0" stop-color="#bada00"/>
      <stop offset="0.227" stop-color="#b0ce00"/>
      <stop offset="0.638" stop-color="#95ae00"/>
      <stop offset="1" stop-color="#798c00"/>
    </linearGradient>
    <linearGradient id="linear-gradient-6" x1="0.895" y1="0.935" x2="0.161" y2="0.038" gradientUnits="objectBoundingBox">
      <stop offset="0" stop-color="#798c00" stop-opacity="0"/>
      <stop offset="0.654" stop-color="#556100" stop-opacity="0.655"/>
      <stop offset="1" stop-color="#464f00"/>
    </linearGradient>
    <linearGradient id="linear-gradient-7" x1="0.426" y1="0.199" x2="0.663" y2="0.983" xlink:href="#linear-gradient"/>
    <linearGradient id="linear-gradient-8" x1="0.484" y1="0.167" x2="0.55" y2="1.317" xlink:href="#linear-gradient"/>
    <linearGradient id="linear-gradient-9" x1="-131.136" y1="-350.586" x2="-129.751" y2="-348.666" gradientUnits="objectBoundingBox">
      <stop offset="0" stop-color="#42210b" stop-opacity="0"/>
      <stop offset="1" stop-color="#42210b"/>
    </linearGradient>
    <linearGradient id="linear-gradient-10" x1="-164.211" y1="-447.611" x2="-162.826" y2="-445.691" xlink:href="#linear-gradient-9"/>
    <linearGradient id="linear-gradient-11" x1="-279.76" y1="-742.898" x2="-278.374" y2="-740.978" xlink:href="#linear-gradient-9"/>
    <linearGradient id="linear-gradient-12" x1="-341.476" y1="-311.014" x2="-340.091" y2="-309.095" xlink:href="#linear-gradient-9"/>
    <linearGradient id="linear-gradient-13" x1="-429.605" y1="-396.277" x2="-428.22" y2="-394.357" xlink:href="#linear-gradient-9"/>
    <linearGradient id="linear-gradient-14" x1="-718.616" y1="-660.345" x2="-717.23" y2="-658.426" xlink:href="#linear-gradient-9"/>
    <linearGradient id="linear-gradient-15" x1="0.753" y1="0.237" x2="1.337" y2="-0.3" xlink:href="#linear-gradient-9"/>
    <linearGradient id="linear-gradient-16" x1="0.722" y1="0.203" x2="1.262" y2="-0.354" xlink:href="#linear-gradient-9"/>
    <linearGradient id="linear-gradient-17" x1="1.076" y1="1.682" x2="0.297" y2="0.464" xlink:href="#linear-gradient-9"/>
    <linearGradient id="linear-gradient-18" x1="0.668" y1="0.332" x2="0.409" y2="0.591" gradientUnits="objectBoundingBox">
      <stop offset="0" stop-color="#ffd945"/>
      <stop offset="0.304" stop-color="#ffcd3e"/>
      <stop offset="0.856" stop-color="#ffad2b"/>
      <stop offset="1" stop-color="#ffa325"/>
    </linearGradient>
    <linearGradient id="linear-gradient-19" x1="1.06" y1="1.083" x2="-0.112" y2="-0.41" gradientUnits="objectBoundingBox">
      <stop offset="0" stop-color="#f82814" stop-opacity="0"/>
      <stop offset="1" stop-color="#c0272d"/>
    </linearGradient>
    <linearGradient id="linear-gradient-20" x1="0.647" y1="0.075" x2="0.351" y2="0.75" xlink:href="#linear-gradient"/>
    <linearGradient id="linear-gradient-21" x1="0.517" y1="0.16" x2="0.4" y2="1.43" xlink:href="#linear-gradient"/>
    <linearGradient id="linear-gradient-22" x1="-254.04" y1="-792.6" x2="-252.655" y2="-790.681" xlink:href="#linear-gradient-9"/>
    <linearGradient id="linear-gradient-23" x1="-339.543" y1="-344.884" x2="-338.159" y2="-342.964" xlink:href="#linear-gradient-9"/>
    <linearGradient id="linear-gradient-24" x1="-427.156" y1="-439.184" x2="-425.772" y2="-437.264" xlink:href="#linear-gradient-9"/>
    <linearGradient id="linear-gradient-25" x1="-714.556" y1="-731.505" x2="-713.17" y2="-729.586" xlink:href="#linear-gradient-9"/>
    <linearGradient id="linear-gradient-26" x1="1.325" y1="1.872" x2="0.226" y2="0.319" xlink:href="#linear-gradient-9"/>
    <radialGradient id="radial-gradient" cx="0.371" cy="0.645" r="0.761" gradientTransform="matrix(-0.707, -0.707, 0.336, -0.336, -13.51, -4.281)" gradientUnits="objectBoundingBox">
      <stop offset="0" stop-color="#ff6359"/>
      <stop offset="0.484" stop-color="#ff6157"/>
      <stop offset="0.659" stop-color="#fe5c50"/>
      <stop offset="0.784" stop-color="#fd5145"/>
      <stop offset="0.884" stop-color="#fb4334"/>
      <stop offset="0.969" stop-color="#f9311e"/>
      <stop offset="1" stop-color="#f82814"/>
    </radialGradient>
    <linearGradient id="linear-gradient-27" x1="0.799" y1="0.847" x2="0.077" y2="0.113" xlink:href="#linear-gradient-19"/>
    <linearGradient id="linear-gradient-28" x1="5.363" y1="-7.573" x2="5.829" y2="-7.573" xlink:href="#linear-gradient"/>
    <linearGradient id="linear-gradient-29" x1="3.226" y1="-8.112" x2="3.632" y2="-8.112" xlink:href="#linear-gradient"/>
    <radialGradient id="radial-gradient-2" cx="0.37" cy="0.646" r="0.761" gradientTransform="matrix(-0.707, -0.707, 0.336, -0.336, -23.442, -4.255)" xlink:href="#radial-gradient"/>
    <linearGradient id="linear-gradient-30" x1="1.001" y1="0.692" x2="0.765" y2="0.606" xlink:href="#linear-gradient-19"/>
    <linearGradient id="linear-gradient-33" x1="-348.715" y1="-790.037" x2="-347.331" y2="-788.118" xlink:href="#linear-gradient-9"/>
    <linearGradient id="linear-gradient-34" x1="-391.299" y1="-320.037" x2="-389.915" y2="-318.118" xlink:href="#linear-gradient-9"/>
    <linearGradient id="linear-gradient-35" x1="-492.724" y1="-407.708" x2="-491.34" y2="-405.788" xlink:href="#linear-gradient-9"/>
    <linearGradient id="linear-gradient-36" x1="-823.294" y1="-679.302" x2="-821.911" y2="-677.383" xlink:href="#linear-gradient-9"/>
    <linearGradient id="linear-gradient-37" x1="1.198" y1="1.791" x2="0.197" y2="0.294" xlink:href="#linear-gradient-9"/>
    <linearGradient id="linear-gradient-39" x1="0.899" y1="0.922" x2="0.122" y2="-0.046" xlink:href="#linear-gradient-6"/>
    <linearGradient id="linear-gradient-40" x1="-13.488" y1="4.794" x2="-13.249" y2="5.622" xlink:href="#linear-gradient"/>
    <linearGradient id="linear-gradient-41" x1="-16.538" y1="8.47" x2="-16.477" y2="9.858" xlink:href="#linear-gradient"/>
    <linearGradient id="linear-gradient-42" x1="-141.077" y1="-376.745" x2="-139.692" y2="-374.826" xlink:href="#linear-gradient-9"/>
    <linearGradient id="linear-gradient-43" x1="-176.803" y1="-480.748" x2="-175.418" y2="-478.828" xlink:href="#linear-gradient-9"/>
    <linearGradient id="linear-gradient-44" x1="-300.646" y1="-797.866" x2="-299.262" y2="-795.945" xlink:href="#linear-gradient-9"/>
    <linearGradient id="linear-gradient-45" x1="-366.636" y1="-336.263" x2="-365.251" y2="-334.345" xlink:href="#linear-gradient-9"/>
    <linearGradient id="linear-gradient-46" x1="-461.48" y1="-428.263" x2="-460.096" y2="-426.345" xlink:href="#linear-gradient-9"/>
    <linearGradient id="linear-gradient-47" x1="-771.479" y1="-713.397" x2="-770.095" y2="-711.478" xlink:href="#linear-gradient-9"/>
    <linearGradient id="linear-gradient-48" x1="-17.005" y1="5.475" x2="-16.355" y2="5.038" xlink:href="#linear-gradient-9"/>
    <linearGradient id="linear-gradient-49" x1="-19.806" y1="5.787" x2="-19.16" y2="5.39" xlink:href="#linear-gradient-9"/>
    <linearGradient id="linear-gradient-50" x1="1.053" y1="1.433" x2="0.476" y2="0.457" xlink:href="#linear-gradient-9"/>
    <linearGradient id="linear-gradient-51" x1="-0.961" y1="-6.912" x2="-0.813" y2="-6.338" xlink:href="#linear-gradient-2"/>
    <linearGradient id="linear-gradient-52" x1="-1.066" y1="-7.873" x2="-0.474" y2="-6.833" xlink:href="#linear-gradient-2"/>
    <linearGradient id="linear-gradient-53" x1="0.799" y1="1.141" x2="0.201" y2="0.287" xlink:href="#linear-gradient-4"/>
    <linearGradient id="linear-gradient-54" x1="1.079" y1="0.71" x2="0.795" y2="0.994" xlink:href="#linear-gradient-18"/>
    <linearGradient id="linear-gradient-55" x1="0.752" y1="0.825" x2="-0.357" y2="-0.33" xlink:href="#linear-gradient-19"/>
    <linearGradient id="linear-gradient-56" x1="5.583" y1="-8.554" x2="6.049" y2="-8.554" xlink:href="#linear-gradient"/>
  </defs>
  <g id="Grupo_93" data-name="Grupo 93" transform="translate(0 0)">
    <path id="Trazado_1896" data-name="Trazado 1896" d="M231.133,31.475a.9.9,0,0,1,0-1.276l6.731-6.731a.9.9,0,0,1,1.276,1.276l-6.731,6.731A.9.9,0,0,1,231.133,31.475Z" transform="translate(-216.805 -23.203)" fill="url(#linear-gradient)"/>
    <g id="Grupo_84" data-name="Grupo 84" transform="translate(16.156 0.794)">
      <path id="Trazado_1897" data-name="Trazado 1897" d="M270.491,37.205a.875.875,0,0,0-.213-.141c-.611-.284-3.571-1.557-4.807-.219-.77.833.38,2.24,1.55,3.323,1.068.989,2.552,1.163,3.3.389C271.175,39.681,271.85,38.416,270.491,37.205Z" transform="translate(-265.221 -36.245)" fill="url(#linear-gradient-2)"/>
      <path id="Trazado_1898" data-name="Trazado 1898" d="M270.491,37.205a.875.875,0,0,0-.213-.141c-.611-.284-3.571-1.557-4.807-.219-.77.833.38,2.24,1.55,3.323C268.088,41.158,271.85,38.416,270.491,37.205Z" transform="translate(-265.221 -36.245)" fill="url(#linear-gradient-3)"/>
    </g>
    <path id="Trazado_1899" data-name="Trazado 1899" d="M290.541,77.128l-1.123,1.122c.107.106.216.21.325.311a2.7,2.7,0,0,0,2.909.679Z" transform="translate(-271.788 -73.843)" fill="url(#linear-gradient-4)"/>
    <path id="Trazado_1900" data-name="Trazado 1900" d="M193.551,29.35a16.264,16.264,0,0,1,7.267,7.267c.325.719,1.422.634,2.225-.169a1.817,1.817,0,0,0,.6-1.749,13.973,13.973,0,0,0-3.306-4.868,13.974,13.974,0,0,0-4.868-3.306,1.817,1.817,0,0,0-1.749.6C192.917,27.929,192.832,29.025,193.551,29.35Z" transform="translate(-181.301 -26.268)" fill="url(#linear-gradient-5)"/>
    <path id="Trazado_1901" data-name="Trazado 1901" d="M236.861,93.071q-.062-.068-.132-.132c-.942-1.026-3.318-1.5-4.432-1.394A17.019,17.019,0,0,1,234.62,93.5a14.915,14.915,0,0,1,3.044,4.222c.325.719,1.422.634,2.225-.169a2.37,2.37,0,0,0,.568-.883Z" transform="translate(-218.146 -87.369)" fill="url(#linear-gradient-6)"/>
    <g id="Grupo_88" data-name="Grupo 88" transform="translate(9.339 4.162)">
      <path id="Trazado_1902" data-name="Trazado 1902" d="M157.61,91.685s-3.175,2.179-4.184,4.552,4.931,4.358,6.245,3.735,3.281-4.163,3.281-6.108S158.286,91.179,157.61,91.685Z" transform="translate(-153.311 -91.531)" fill="url(#linear-gradient-7)"/>
      <path id="Trazado_1903" data-name="Trazado 1903" d="M161.5,91.685a14.335,14.335,0,0,0-4.046,4.255c1.569.8,3.552,1.2,4.245.867,1.061-.5,2.547-2.908,3.081-4.839C163.442,91.5,161.874,91.408,161.5,91.685Z" transform="translate(-157.205 -91.531)" fill="url(#linear-gradient-8)"/>
      <g id="Grupo_87" data-name="Grupo 87" transform="translate(3.71 0.637)" opacity="0.5">
        <g id="Grupo_85" data-name="Grupo 85" transform="translate(0 0.007)">
          <circle id="Elipse_105" data-name="Elipse 105" cx="0.336" cy="0.336" r="0.336" transform="translate(0.374)" fill="url(#linear-gradient-9)"/>
          <circle id="Elipse_106" data-name="Elipse 106" cx="0.265" cy="0.265" r="0.265" transform="translate(0 1.044)" fill="url(#linear-gradient-10)"/>
          <circle id="Elipse_107" data-name="Elipse 107" cx="0.16" cy="0.16" r="0.16" transform="translate(1.283 1.145)" fill="url(#linear-gradient-11)"/>
        </g>
        <g id="Grupo_86" data-name="Grupo 86" transform="translate(1.552)">
          <circle id="Elipse_108" data-name="Elipse 108" cx="0.248" cy="0.248" r="0.248" transform="translate(0.703)" fill="url(#linear-gradient-12)"/>
          <circle id="Elipse_109" data-name="Elipse 109" cx="0.196" cy="0.196" r="0.196" transform="translate(0 0.287)" fill="url(#linear-gradient-13)"/>
          <circle id="Elipse_110" data-name="Elipse 110" cx="0.118" cy="0.118" r="0.118" transform="translate(0.661 1.011)" fill="url(#linear-gradient-14)"/>
        </g>
      </g>
      <path id="Trazado_1904" data-name="Trazado 1904" d="M157.227,127.186a6.6,6.6,0,0,0-2.4.442,7.958,7.958,0,0,0-1.4,2.093c-1.009,2.373,4.931,4.358,6.245,3.735.839-.4,1.944-1.985,2.633-3.586a5.728,5.728,0,0,0-5.077-2.683Z" transform="translate(-153.311 -125.014)" fill="url(#linear-gradient-15)"/>
      <path id="Trazado_1905" data-name="Trazado 1905" d="M161.782,146.8a7.237,7.237,0,0,0-5.87-2.725,8.306,8.306,0,0,0-1.7.175,6.67,6.67,0,0,0-.783,1.331c-1.009,2.373,4.931,4.358,6.245,3.735A6.337,6.337,0,0,0,161.782,146.8Z" transform="translate(-153.312 -140.872)" fill="url(#linear-gradient-16)"/>
    </g>
    <path id="Trazado_1906" data-name="Trazado 1906" d="M193.748,185.893l-1.939,1.939c1.527.722,3.354,1.067,4.014.754a1.987,1.987,0,0,0,.376-.242Z" transform="translate(-180.125 -175.983)" fill="url(#linear-gradient-17)"/>
    <path id="Trazado_1907" data-name="Trazado 1907" d="M97.153,125.749a16.264,16.264,0,0,1,7.267,7.267c.325.719,1.422.634,2.225-.169a1.817,1.817,0,0,0,.6-1.749,15.672,15.672,0,0,0-8.174-8.174,1.817,1.817,0,0,0-1.749.6C96.519,124.328,96.434,125.424,97.153,125.749Z" transform="translate(-90.774 -116.794)" fill="url(#linear-gradient-18)"/>
    <path id="Trazado_1908" data-name="Trazado 1908" d="M125.012,182.508a1.817,1.817,0,0,0,.6-1.749l-.013-.036-3.117-3.117q-.131-.134-.281-.269a1.447,1.447,0,0,0-.353-.233,13.352,13.352,0,0,0-5.627-1.344,15.8,15.8,0,0,1,3.521,2.694,14.915,14.915,0,0,1,3.044,4.222C123.112,183.4,124.209,183.311,125.012,182.508Z" transform="translate(-109.142 -166.455)" fill="url(#linear-gradient-19)"/>
    <g id="Grupo_92" data-name="Grupo 92" transform="translate(4.33 9.292)">
      <path id="Trazado_1909" data-name="Trazado 1909" d="M79.816,177.33a1.447,1.447,0,0,0-.353-.233c-1.012-.47-5.916-2.579-7.963-.363-1.275,1.38.63,3.711,2.567,5.5,1.769,1.638,4.228,1.926,5.472.644C80.948,181.432,82.066,179.335,79.816,177.33Z" transform="translate(-71.086 -175.739)" fill="url(#linear-gradient-20)"/>
      <path id="Trazado_1910" data-name="Trazado 1910" d="M79.816,177.33a1.447,1.447,0,0,0-.353-.233c-1.012-.47-5.916-2.579-7.963-.363-1.275,1.38.63,3.711,2.567,5.5C75.835,183.877,82.066,179.335,79.816,177.33Z" transform="translate(-71.086 -175.739)" fill="url(#linear-gradient-21)"/>
      <g id="Grupo_91" data-name="Grupo 91" transform="translate(6.442 3.745)" opacity="0.5">
        <g id="Grupo_89" data-name="Grupo 89" transform="translate(0 1.152)">
          <circle id="Elipse_111" data-name="Elipse 111" cx="0.16" cy="0.16" r="0.16" fill="url(#linear-gradient-22)"/>
        </g>
        <g id="Grupo_90" data-name="Grupo 90" transform="translate(0.268)">
          <circle id="Elipse_112" data-name="Elipse 112" cx="0.248" cy="0.248" r="0.248" transform="translate(0.703)" fill="url(#linear-gradient-23)"/>
          <circle id="Elipse_113" data-name="Elipse 113" cx="0.196" cy="0.196" r="0.196" transform="translate(0 0.287)" fill="url(#linear-gradient-24)"/>
          <circle id="Elipse_114" data-name="Elipse 114" cx="0.118" cy="0.118" r="0.118" transform="translate(0.661 1.011)" fill="url(#linear-gradient-25)"/>
        </g>
      </g>
    </g>
    <path id="Trazado_1911" data-name="Trazado 1911" d="M116.024,259.624a4.953,4.953,0,0,0,3.871,1.413L117,258.144l-1.237,1.237Q115.894,259.5,116.024,259.624Z" transform="translate(-108.713 -243.832)" fill="url(#linear-gradient-26)"/>
    <path id="Trazado_1912" data-name="Trazado 1912" d="M7.238,195.932a19.188,19.188,0,0,1,4.733,3.555,19.191,19.191,0,0,1,3.555,4.733c.4.792,1.566.779,2.369-.024a1.761,1.761,0,0,0,.52-1.83,17.9,17.9,0,0,0-3.88-5.443,17.9,17.9,0,0,0-5.443-3.88,1.761,1.761,0,0,0-1.83.52c-.8.8-.816,1.971-.024,2.369Z" transform="translate(-6.247 -182.612)" fill="url(#radial-gradient)"/>
    <path id="Trazado_1913" data-name="Trazado 1913" d="M83.946,273.619a19.189,19.189,0,0,1,3.555,4.733c.4.792,1.566.779,2.369-.024a2.059,2.059,0,0,0,.591-1.117l-5.054-5.054a.9.9,0,0,0-1.276,0l-.836.836Q83.622,273.3,83.946,273.619Z" transform="translate(-78.221 -256.744)" fill="url(#linear-gradient-27)"/>
    <path id="Trazado_1914" data-name="Trazado 1914" d="M.264,279.079a.9.9,0,0,1,0-1.276l5.646-5.646a.9.9,0,0,1,1.276,1.277l-5.646,5.646a.9.9,0,0,1-1.276,0Z" transform="translate(0 -256.744)" fill="url(#linear-gradient-28)"/>
  </g>
  <g id="Grupo_103" data-name="Grupo 103" transform="translate(8.01 5.184)">
    <path id="Trazado_1915" data-name="Trazado 1915" d="M362.632,124.062a.9.9,0,0,1,0-1.276l6.731-6.731a.9.9,0,0,1,1.277,1.276l-6.731,6.731A.9.9,0,0,1,362.632,124.062Z" transform="translate(-348.304 -115.333)" fill="url(#linear-gradient-29)"/>
    <path id="Trazado_1916" data-name="Trazado 1916" d="M355.7,110.667a16.728,16.728,0,0,1,6.592,6.592c.317.63,1.245.619,1.884-.019a1.4,1.4,0,0,0,.414-1.455,16.082,16.082,0,0,0-7.414-7.414,1.4,1.4,0,0,0-1.455.413C355.085,109.421,355.075,110.35,355.7,110.667Z" transform="translate(-341.609 -108.297)" fill="url(#radial-gradient-2)"/>
    <path id="Trazado_1917" data-name="Trazado 1917" d="M371.188,151.683a16.061,16.061,0,0,1,3.259,2.554A15.262,15.262,0,0,1,377.274,158c.317.63,1.245.619,1.884-.019a1.4,1.4,0,0,0,.413-1.455,8.871,8.871,0,0,0-.416-.862l-2.094-2.094q-.142-.149-.308-.3a1.447,1.447,0,0,0-.353-.233A14.125,14.125,0,0,0,371.188,151.683Z" transform="translate(-356.587 -149.04)" fill="url(#linear-gradient-30)"/>
    <g id="Grupo_97" data-name="Grupo 97" transform="translate(11.436 2.642)">
      <path id="Trazado_1918" data-name="Trazado 1918" d="M327.966,153.267a1.446,1.446,0,0,0-.353-.233c-1.012-.47-5.916-2.579-7.963-.363-1.275,1.38.63,3.711,2.567,5.5,1.769,1.638,4.228,1.926,5.472.644C329.1,157.369,330.217,155.272,327.966,153.267Z" transform="translate(-319.237 -151.676)" fill="url(#linear-gradient-20)"/>
      <path id="Trazado_1919" data-name="Trazado 1919" d="M327.966,153.267a1.446,1.446,0,0,0-.353-.233c-1.012-.47-5.916-2.579-7.963-.363-1.275,1.38.63,3.711,2.567,5.5C323.986,159.814,330.217,155.272,327.966,153.267Z" transform="translate(-319.237 -151.676)" fill="url(#linear-gradient-21)"/>
      <g id="Grupo_96" data-name="Grupo 96" transform="translate(6.442 3.745)" opacity="0.5">
        <g id="Grupo_94" data-name="Grupo 94" transform="translate(0 1.152)">
          <circle id="Elipse_115" data-name="Elipse 115" cx="0.16" cy="0.16" r="0.16" fill="url(#linear-gradient-33)"/>
        </g>
        <g id="Grupo_95" data-name="Grupo 95" transform="translate(0.268)">
          <circle id="Elipse_116" data-name="Elipse 116" cx="0.248" cy="0.248" r="0.248" transform="translate(0.703)" fill="url(#linear-gradient-34)"/>
          <circle id="Elipse_117" data-name="Elipse 117" cx="0.196" cy="0.196" r="0.196" transform="translate(0 0.287)" fill="url(#linear-gradient-35)"/>
          <circle id="Elipse_118" data-name="Elipse 118" cx="0.118" cy="0.118" r="0.118" transform="translate(0.661 1.011)" fill="url(#linear-gradient-36)"/>
        </g>
      </g>
    </g>
    <path id="Trazado_1920" data-name="Trazado 1920" d="M375.826,241.175l-2.559-2.559-1.4,1.4A4.723,4.723,0,0,0,375.826,241.175Z" transform="translate(-357.224 -230.678)" fill="url(#linear-gradient-37)"/>
    <path id="Trazado_1921" data-name="Trazado 1921" d="M268.446,178.542a16.264,16.264,0,0,1,7.267,7.267c.325.719,1.422.634,2.225-.169a1.817,1.817,0,0,0,.6-1.749,15.672,15.672,0,0,0-8.174-8.174,1.817,1.817,0,0,0-1.749.6c-.8.8-.888,1.9-.169,2.225Z" transform="translate(-259.644 -171.555)" fill="url(#linear-gradient-5)"/>
    <path id="Trazado_1922" data-name="Trazado 1922" d="M303.853,236.98a1.362,1.362,0,0,0-.192-.176,11.746,11.746,0,0,0-5.027-1.65.379.379,0,0,0-.1,0,16.523,16.523,0,0,1,2.85,2.3,14.916,14.916,0,0,1,3.044,4.222c.325.719,1.422.634,2.225-.169a2.257,2.257,0,0,0,.628-1.1Z" transform="translate(-288.36 -227.424)" fill="url(#linear-gradient-39)"/>
    <g id="Grupo_101" data-name="Grupo 101" transform="translate(7.379 7.727)">
      <path id="Trazado_1923" data-name="Trazado 1923" d="M255.538,235.151a11.746,11.746,0,0,1,5.027,1.65c1.8,1.362-1.43,5.4-2.635,5.491s-4.217-1.742-5.116-3.212S254.832,235.058,255.538,235.151Z" transform="translate(-252.643 -235.149)" fill="url(#linear-gradient-40)"/>
      <path id="Trazado_1924" data-name="Trazado 1924" d="M266.86,235.151a12.276,12.276,0,0,1,4.794,1.485c-.727,1.274-1.928,2.422-2.565,2.47-.974.074-3.124-1.108-4.389-2.339C265.423,235.843,266.473,235.1,266.86,235.151Z" transform="translate(-263.966 -235.149)" fill="url(#linear-gradient-41)"/>
      <g id="Grupo_100" data-name="Grupo 100" transform="translate(1.614 0.449)" opacity="0.5">
        <g id="Grupo_98" data-name="Grupo 98" transform="translate(0 0.007)">
          <circle id="Elipse_119" data-name="Elipse 119" cx="0.336" cy="0.336" r="0.336" transform="translate(0.374)" fill="url(#linear-gradient-42)"/>
          <circle id="Elipse_120" data-name="Elipse 120" cx="0.265" cy="0.265" r="0.265" transform="translate(0 1.044)" fill="url(#linear-gradient-43)"/>
          <circle id="Elipse_121" data-name="Elipse 121" cx="0.16" cy="0.16" r="0.16" transform="translate(1.283 1.145)" fill="url(#linear-gradient-44)"/>
        </g>
        <g id="Grupo_99" data-name="Grupo 99" transform="translate(1.552)">
          <circle id="Elipse_122" data-name="Elipse 122" cx="0.248" cy="0.248" r="0.248" transform="translate(0.703)" fill="url(#linear-gradient-45)"/>
          <circle id="Elipse_123" data-name="Elipse 123" cx="0.196" cy="0.196" r="0.196" transform="translate(0 0.287)" fill="url(#linear-gradient-46)"/>
          <circle id="Elipse_124" data-name="Elipse 124" cx="0.118" cy="0.118" r="0.118" transform="translate(0.661 1.011)" fill="url(#linear-gradient-47)"/>
        </g>
      </g>
      <path id="Trazado_1925" data-name="Trazado 1925" d="M284.131,246.87a5.05,5.05,0,0,1,1.878-.691,7.114,7.114,0,0,1,1.949.981c1.8,1.362-1.43,5.4-2.635,5.491a6.977,6.977,0,0,1-3.5-1.583A4.616,4.616,0,0,1,284.131,246.87Z" transform="translate(-280.036 -245.507)" fill="url(#linear-gradient-48)"/>
      <path id="Trazado_1926" data-name="Trazado 1926" d="M296.135,256.428a5.768,5.768,0,0,1,2.841-4.568,6.309,6.309,0,0,1,1.27-.6,6.034,6.034,0,0,1,1.162.671c1.8,1.362-1.43,5.4-2.636,5.491A5.514,5.514,0,0,1,296.135,256.428Z" transform="translate(-293.486 -250.282)" fill="url(#linear-gradient-49)"/>
    </g>
    <path id="Trazado_1927" data-name="Trazado 1927" d="M257.329,295.229q-.1-.1-.209-.2a1.073,1.073,0,0,0-.263-.173,10.716,10.716,0,0,0-3.752-1.008,1.137,1.137,0,0,0,.142.357c.9,1.47,3.91,3.3,5.116,3.212a1.677,1.677,0,0,0,.779-.374Z" transform="translate(-245.697 -282.545)" fill="url(#linear-gradient-50)"/>
    <g id="Grupo_102" data-name="Grupo 102" transform="translate(4.932 11.301)">
      <path id="Trazado_1928" data-name="Trazado 1928" d="M218.962,295a1.074,1.074,0,0,0-.263-.173c-.753-.349-4.4-1.917-5.92-.27-.948,1.026.468,2.759,1.908,4.092,1.315,1.218,3.143,1.432,4.068.479C219.8,298.046,220.635,296.487,218.962,295Z" transform="translate(-212.472 -293.814)" fill="url(#linear-gradient-51)"/>
      <path id="Trazado_1929" data-name="Trazado 1929" d="M218.962,295a1.074,1.074,0,0,0-.263-.173c-.753-.349-4.4-1.917-5.92-.27-.948,1.026.468,2.759,1.908,4.092C216,299.863,220.635,296.487,218.962,295Z" transform="translate(-212.472 -293.814)" fill="url(#linear-gradient-52)"/>
    </g>
    <path id="Trazado_1930" data-name="Trazado 1930" d="M247.059,346.855c1.22,1.129,2.88,1.395,3.853.667l-2.372-2.372-1.6,1.6Z" transform="translate(-239.911 -330.722)" fill="url(#linear-gradient-53)"/>
    <path id="Trazado_1931" data-name="Trazado 1931" d="M162.155,300.776a12.839,12.839,0,0,1,6.434,6.434c.265.659,1.3.516,2.107-.287a1.9,1.9,0,0,0,.667-1.683A12.4,12.4,0,0,0,164.125,298a1.9,1.9,0,0,0-1.683.667C161.639,299.473,161.5,300.512,162.155,300.776Z" transform="translate(-159.896 -286.413)" fill="url(#linear-gradient-54)"/>
    <path id="Trazado_1932" data-name="Trazado 1932" d="M222.025,364.744a.9.9,0,0,0-1.276,0l-.5.5q.333.293.659.618a11.846,11.846,0,0,1,2.628,3.806c.265.659,1.3.516,2.107-.287a2.787,2.787,0,0,0,.447-.581Z" transform="translate(-214.838 -348.874)" fill="url(#linear-gradient-55)"/>
    <path id="Trazado_1933" data-name="Trazado 1933" d="M131.764,371.666a.9.9,0,0,1,0-1.277l5.646-5.646a.9.9,0,0,1,1.276,1.277l-5.646,5.646A.9.9,0,0,1,131.764,371.666Z" transform="translate(-131.5 -348.874)" fill="url(#linear-gradient-56)"/>
  </g>
</svg>
