<svg id="_010-breakfast" data-name="010-breakfast" xmlns="http://www.w3.org/2000/svg" xmlns:xlink="http://www.w3.org/1999/xlink" width="41.564" height="30.258" viewBox="0 0 41.564 30.258">
  <defs>
    <linearGradient id="linear-gradient" x1="0.504" y1="0.342" x2="0.512" y2="0.972" gradientUnits="objectBoundingBox">
      <stop offset="0" stop-color="#f8f6fb"/>
      <stop offset="1" stop-color="#efdcfb"/>
    </linearGradient>
    <linearGradient id="linear-gradient-2" x1="0.461" y1="0.079" x2="0.552" y2="1.066" xlink:href="#linear-gradient"/>
    <linearGradient id="linear-gradient-3" x1="0.532" y1="1.379" x2="0.477" y2="-0.143" xlink:href="#linear-gradient"/>
    <linearGradient id="linear-gradient-4" x1="0.608" y1="0.965" x2="0.326" y2="-0.379" gradientUnits="objectBoundingBox">
      <stop offset="0" stop-color="#efdcfb" stop-opacity="0"/>
      <stop offset="0.029" stop-color="#e9d6f7" stop-opacity="0.027"/>
      <stop offset="0.22" stop-color="#c5b5de" stop-opacity="0.22"/>
      <stop offset="0.414" stop-color="#aa9bcb" stop-opacity="0.416"/>
      <stop offset="0.608" stop-color="#9688bd" stop-opacity="0.608"/>
      <stop offset="0.803" stop-color="#8a7db5" stop-opacity="0.804"/>
      <stop offset="1" stop-color="#8679b2"/>
    </linearGradient>
    <radialGradient id="radial-gradient" cx="0.4" cy="0.002" r="1.023" gradientTransform="translate(0.235) scale(0.53 1)" gradientUnits="objectBoundingBox">
      <stop offset="0" stop-color="#f8f6fb"/>
      <stop offset="0.505" stop-color="#f7f4fb"/>
      <stop offset="0.766" stop-color="#f5ecfb"/>
      <stop offset="0.97" stop-color="#f0dffb"/>
      <stop offset="1" stop-color="#efdcfb"/>
    </radialGradient>
    <linearGradient id="linear-gradient-5" x1="0.563" y1="0.787" x2="0.354" y2="-0.368" xlink:href="#linear-gradient-4"/>
    <linearGradient id="linear-gradient-6" x1="0.422" y1="0.164" x2="0.554" y2="1.032" gradientUnits="objectBoundingBox">
      <stop offset="0" stop-color="#ffd945"/>
      <stop offset="0.304" stop-color="#ffcd3e"/>
      <stop offset="0.856" stop-color="#ffad2b"/>
      <stop offset="1" stop-color="#ffa325"/>
    </linearGradient>
    <linearGradient id="linear-gradient-7" x1="0.182" y1="0.432" x2="1.621" y2="0.759" gradientUnits="objectBoundingBox">
      <stop offset="0" stop-color="#e87264" stop-opacity="0"/>
      <stop offset="1" stop-color="#f8dfbe"/>
    </linearGradient>
    <linearGradient id="linear-gradient-8" x1="0.125" y1="0.453" x2="1.091" y2="0.555" gradientUnits="objectBoundingBox">
      <stop offset="0" stop-color="#e87264" stop-opacity="0"/>
      <stop offset="0.157" stop-color="#e97869" stop-opacity="0.157"/>
      <stop offset="0.378" stop-color="#ec8b78" stop-opacity="0.376"/>
      <stop offset="0.635" stop-color="#f0a991" stop-opacity="0.635"/>
      <stop offset="0.919" stop-color="#f6d2b3" stop-opacity="0.918"/>
      <stop offset="1" stop-color="#f8dfbe"/>
    </linearGradient>
    <linearGradient id="linear-gradient-9" x1="0.02" y1="0.428" x2="1.148" y2="0.604" xlink:href="#linear-gradient-7"/>
    <linearGradient id="linear-gradient-10" x1="0.487" y1="0.493" x2="0.356" y2="1.05" gradientUnits="objectBoundingBox">
      <stop offset="0" stop-color="#fff" stop-opacity="0"/>
      <stop offset="0.214" stop-color="#fef0ec" stop-opacity="0.216"/>
      <stop offset="0.645" stop-color="#fcc9bb" stop-opacity="0.643"/>
      <stop offset="1" stop-color="#faa68e"/>
    </linearGradient>
    <linearGradient id="linear-gradient-11" x1="0.413" y1="0.795" x2="0.744" y2="-0.001" xlink:href="#linear-gradient-4"/>
    <linearGradient id="linear-gradient-12" x1="0.582" y1="0.419" x2="0.393" y2="0.898" gradientUnits="objectBoundingBox">
      <stop offset="0" stop-color="#faa68e"/>
      <stop offset="0.353" stop-color="#faa38f"/>
      <stop offset="0.651" stop-color="#fc9893"/>
      <stop offset="0.929" stop-color="#fe879a"/>
      <stop offset="1" stop-color="#ff819c"/>
    </linearGradient>
    <linearGradient id="linear-gradient-13" x1="0.534" y1="0.542" x2="0.374" y2="1.051" xlink:href="#linear-gradient-10"/>
    <linearGradient id="linear-gradient-14" x1="0.551" y1="0.518" x2="0.387" y2="1.157" gradientUnits="objectBoundingBox">
      <stop offset="0" stop-color="#f82814" stop-opacity="0"/>
      <stop offset="1" stop-color="#c0272d"/>
    </linearGradient>
    <linearGradient id="linear-gradient-15" x1="0.553" y1="0.547" x2="0.442" y2="0.892" xlink:href="#linear-gradient-10"/>
    <linearGradient id="linear-gradient-16" x1="0.859" y1="0.505" x2="1.339" y2="1.403" gradientUnits="objectBoundingBox">
      <stop offset="0" stop-color="#f82814" stop-opacity="0"/>
      <stop offset="0.268" stop-color="#ee2818" stop-opacity="0.267"/>
      <stop offset="0.719" stop-color="#d42724" stop-opacity="0.718"/>
      <stop offset="1" stop-color="#c0272d"/>
    </linearGradient>
    <linearGradient id="linear-gradient-17" x1="0.451" y1="0.653" x2="0.544" y2="0.264" xlink:href="#linear-gradient-14"/>
    <linearGradient id="linear-gradient-18" x1="0.533" y1="0.408" x2="0.365" y2="0.826" xlink:href="#linear-gradient-12"/>
    <linearGradient id="linear-gradient-19" x1="0.485" y1="0.518" x2="0.344" y2="0.962" xlink:href="#linear-gradient-10"/>
    <linearGradient id="linear-gradient-20" x1="0.492" y1="0.499" x2="0.346" y2="1.057" xlink:href="#linear-gradient-14"/>
    <linearGradient id="linear-gradient-21" x1="0.487" y1="0.527" x2="0.388" y2="0.828" xlink:href="#linear-gradient-10"/>
    <linearGradient id="linear-gradient-22" x1="0.606" y1="0.312" x2="1.032" y2="1.09" xlink:href="#linear-gradient-16"/>
  </defs>
  <g id="Grupo_78" data-name="Grupo 78" transform="translate(0 13.988)">
    <path id="Trazado_1873" data-name="Trazado 1873" d="M101.881,375.263A47.1,47.1,0,0,1,88.3,373.428c.533,1.9,1.534,3.338,2.769,3.8a32.089,32.089,0,0,0,10.817,1.679,32.087,32.087,0,0,0,10.817-1.679c1.235-.46,2.236-1.9,2.769-3.8A47.1,47.1,0,0,1,101.881,375.263Z" transform="translate(-81.099 -362.636)" fill="url(#linear-gradient)"/>
    <path id="Trazado_1874" data-name="Trazado 1874" d="M41.564,248.241c0,9.649-41.564,9.649-41.564,0S41.564,238.592,41.564,248.241Z" transform="translate(0 -241.004)" fill="url(#linear-gradient-2)"/>
    <path id="Trazado_1875" data-name="Trazado 1875" d="M70.859,262.971c0,6.879-35.859,6.879-35.859,0S70.859,256.091,70.859,262.971Z" transform="translate(-32.148 -256.441)" fill="url(#linear-gradient-3)"/>
  </g>
  <path id="Trazado_1876" data-name="Trazado 1876" d="M222.385,268.676l-4.562-4.562c-1.18-1.278-3.587-1.763-6.364-1.763-1.92,0-7.613-.163-9.548-.163-2.876,0-4.882.875-4.882,2.357a1.639,1.639,0,0,0,.48,1.213,3.046,3.046,0,0,1,.7,2.764,3.551,3.551,0,0,0-.057.634,3.854,3.854,0,0,0,1.3,2.821l2.955,2.955c9.442-.092,18.7-2.177,19.978-6.256Z" transform="translate(-180.972 -246.473)" fill="url(#linear-gradient-4)"/>
  <g id="Grupo_79" data-name="Grupo 79" transform="translate(15.813 14.635)">
    <path id="Trazado_1877" data-name="Trazado 1877" d="M215.843,262.16c0-2.007-3.2-3.972-7.139-3.972h-9.467c-2.876,0-5.208,1.2-5.208,2.683a1.735,1.735,0,0,0,.562,1.213,3.136,3.136,0,0,1,.865,2.764,3.552,3.552,0,0,0-.057.634c0,2.36,2.332,4.274,5.208,4.274a6.049,6.049,0,0,0,2.734-.636,4.185,4.185,0,0,1,2.658-.359,7.262,7.262,0,0,0,1.334.123,6.015,6.015,0,0,0,5.655-3.3,1.768,1.768,0,0,1,.82-.879C215.067,264.045,215.843,263.149,215.843,262.16Z" transform="translate(-194.029 -257.434)" fill="url(#radial-gradient)"/>
    <path id="Trazado_1878" data-name="Trazado 1878" d="M270.123,273.4l-4.914-4.914c-.425-.445-5.438-.291-7.576-.291-1.674.865-3.12,1.551-3.12,3.29a1.077,1.077,0,0,0,.427.814l5.563,5.563a4.376,4.376,0,0,1,1.051.068,7.261,7.261,0,0,0,1.334.122,6.015,6.015,0,0,0,5.655-3.3,1.768,1.768,0,0,1,.82-.879A5.894,5.894,0,0,0,270.123,273.4Z" transform="translate(-249.584 -266.606)" fill="url(#linear-gradient-5)"/>
    <path id="Trazado_1879" data-name="Trazado 1879" d="M266.468,253.823c0,2.7-11.955,2.7-11.955,0s2.676-4.883,5.978-4.883S266.468,251.126,266.468,253.823Z" transform="translate(-249.584 -248.94)" fill="url(#linear-gradient-6)"/>
  </g>
  <g id="Grupo_80" data-name="Grupo 80" transform="translate(10.92 0)">
    <path id="Trazado_1880" data-name="Trazado 1880" d="M278.353,152.24a.287.287,0,0,1,.4-.365,3.758,3.758,0,0,1,2.019,3.183c0,2.563-2.942,2.8-2.942,4.7a7.672,7.672,0,0,0,.243,2.072.287.287,0,0,1-.39.352,3.391,3.391,0,0,1-1.861-3.271c0-2.992,2.918-2.948,2.918-4.584A5.982,5.982,0,0,0,278.353,152.24Z" transform="translate(-264.265 -145.114)" fill="url(#linear-gradient-7)"/>
    <path id="Trazado_1881" data-name="Trazado 1881" d="M217.495,69.531c-.064-.114.107-.219.222-.136a4.515,4.515,0,0,1,2.091,3.369c0,2.29-2.487,2.938-2.819,4.724a5.627,5.627,0,0,0,.628,3.4c.049.095-.064.191-.18.154a3.739,3.739,0,0,1-2.819-4.143c.334-2.786,2.829-2.659,3.272-4.461A3.966,3.966,0,0,0,217.495,69.531Z" transform="translate(-208.016 -69.365)" fill="url(#linear-gradient-8)"/>
    <path id="Trazado_1882" data-name="Trazado 1882" d="M135.466,160.508c-.087-.214.1-.415.274-.3a3.432,3.432,0,0,1,1.671,2.626c.153,2.115-1.992,2.314-1.879,3.881a7.3,7.3,0,0,0,.3,1.709c.065.2-.1.381-.266.291a3.1,3.1,0,0,1-1.56-2.7c-.178-2.469,1.966-2.432,1.868-3.783A5.716,5.716,0,0,0,135.466,160.508Z" transform="translate(-133.997 -152.774)" fill="url(#linear-gradient-9)"/>
  </g>
  <path id="Trazado_1883" data-name="Trazado 1883" d="M64.611,264.22a4.221,4.221,0,0,1-.676-.533l-.087-.084a4.227,4.227,0,0,0-3.92-1.074l-.117.028a4.227,4.227,0,0,1-4.167-1.334l-.092-.105a4.277,4.277,0,0,0-3.759-1.433h0a4.269,4.269,0,0,1-4.16-1.982l-.032-.052a5.238,5.238,0,0,0-1.577-1.624L45.985,256a2.428,2.428,0,0,0-1.381-.422,7.833,7.833,0,0,0-3.589.67,5.929,5.929,0,0,0,2.586,2.692,5.424,5.424,0,0,1,1.631,1.681l.054.088a4.489,4.489,0,0,0,4.375,2.121h0a4.493,4.493,0,0,1,3.956,1.536l.084.1a4.4,4.4,0,0,0,4.373,1.417l.123-.03a4.4,4.4,0,0,1,4.114,1.141l.091.089.007.006a.945.945,0,0,0,.415.236l1.9-1.587A.941.941,0,0,0,64.611,264.22Z" transform="translate(-37.672 -240.404)" fill="url(#linear-gradient-10)"/>
  <path id="Trazado_1884" data-name="Trazado 1884" d="M16.542,306.094c-8.8-.57-16.542-2.936-16.542-7.1a3.774,3.774,0,0,1,1.292-2.733,10.689,10.689,0,0,0,1.078,1.13,4.817,4.817,0,0,1,1.193,1.7l.035.085a4.02,4.02,0,0,0,3.544,2.483h0a4.031,4.031,0,0,1,3.26,1.914l.06.1a3.958,3.958,0,0,0,3.645,1.872l.112-.008A3.959,3.959,0,0,1,16.542,306.094Z" transform="translate(0 -277.769)" fill="url(#linear-gradient-11)"/>
  <g id="Grupo_83" data-name="Grupo 83" transform="translate(0.471 13.539)">
    <g id="Grupo_81" data-name="Grupo 81" transform="translate(4.171 0)">
      <path id="Trazado_1885" data-name="Trazado 1885" d="M72.254,247.737l.06.079,0,.006a.787.787,0,0,0,1.013.2l2.613-1.5a.755.755,0,0,0,.11-1.233,3.5,3.5,0,0,1-.483-.519l-.06-.079a3.565,3.565,0,0,0-3.069-1.394l-.1.006a3.559,3.559,0,0,1-3.237-1.636l-.061-.1a3.594,3.594,0,0,0-2.889-1.66h0a3.573,3.573,0,0,1-3.144-2.154l-.019-.046a4.3,4.3,0,0,0-1.076-1.516l-.028-.025a2.048,2.048,0,0,0-1.075-.526c-2-.3-3.385-.147-3.759.652-.345.737.3,1.767,1.6,2.944a4.217,4.217,0,0,1,1.063,1.479l.031.073a3.6,3.6,0,0,0,3.15,2.167h0a3.622,3.622,0,0,1,2.9,1.671l.054.085a3.559,3.559,0,0,0,3.237,1.636l.1-.006A3.565,3.565,0,0,1,72.254,247.737Z" transform="translate(-56.962 -235.498)" fill="url(#linear-gradient-12)"/>
      <path id="Trazado_1886" data-name="Trazado 1886" d="M85.312,245.286a3.5,3.5,0,0,1-.483-.519l-.06-.079a3.565,3.565,0,0,0-3.069-1.394l-.1.006a3.559,3.559,0,0,1-3.237-1.636l-.061-.1a3.6,3.6,0,0,0-2.889-1.66h0a3.573,3.573,0,0,1-3.144-2.154l-.019-.046a4.3,4.3,0,0,0-1.076-1.516l-.028-.025a2.048,2.048,0,0,0-1.075-.526,6.632,6.632,0,0,0-3.03.049A4.859,4.859,0,0,0,68.8,238.2a4.451,4.451,0,0,1,1.113,1.569l.033.078a3.757,3.757,0,0,0,3.3,2.295h0a3.776,3.776,0,0,1,3.037,1.769l.056.09a3.707,3.707,0,0,0,3.394,1.73l.1-.007A3.71,3.71,0,0,1,83.06,247.2l.063.084,0,.006a.79.79,0,0,0,.309.246l1.766-1.013A.755.755,0,0,0,85.312,245.286Z" transform="translate(-66.22 -235.498)" fill="url(#linear-gradient-13)"/>
      <path id="Trazado_1887" data-name="Trazado 1887" d="M101.154,245.291a3.5,3.5,0,0,1-.483-.519l-.06-.079a3.565,3.565,0,0,0-3.069-1.394l-.1.006a3.559,3.559,0,0,1-3.237-1.636l-.061-.1a3.6,3.6,0,0,0-2.889-1.66h0a3.573,3.573,0,0,1-3.144-2.154l-.019-.046a4.3,4.3,0,0,0-1.076-1.516l-.028-.025a2.048,2.048,0,0,0-1.075-.526,11.516,11.516,0,0,0-1.624-.143,5.7,5.7,0,0,0,1.7,2.234,4.452,4.452,0,0,1,1.113,1.569l.033.078a3.757,3.757,0,0,0,3.3,2.295h0a3.776,3.776,0,0,1,3.037,1.769l.056.09a3.707,3.707,0,0,0,3.394,1.73l.1-.007a3.71,3.71,0,0,1,3.218,1.474l.063.084,0,.006a.793.793,0,0,0,.067.078l.661-.379a.754.754,0,0,0,.11-1.232Z" transform="translate(-82.061 -235.503)" fill="url(#linear-gradient-14)"/>
      <path id="Trazado_1888" data-name="Trazado 1888" d="M112.853,246.037a3.5,3.5,0,0,1-.483-.519l-.06-.079a3.565,3.565,0,0,0-3.069-1.394l-.1.006a3.559,3.559,0,0,1-3.237-1.636l-.061-.1a3.6,3.6,0,0,0-2.889-1.66h0a3.573,3.573,0,0,1-3.144-2.154l-.019-.046a4.3,4.3,0,0,0-1.076-1.516l-.028-.025a2.048,2.048,0,0,0-1.075-.526c-.2-.031-.4-.056-.586-.077a7.841,7.841,0,0,0,1.409,1.606,4.452,4.452,0,0,1,1.113,1.568l.033.078a3.757,3.757,0,0,0,3.3,2.295h0a3.776,3.776,0,0,1,3.037,1.769l.056.09a3.707,3.707,0,0,0,3.394,1.73l.1-.007a3.71,3.71,0,0,1,3.218,1.474l.063.084,0,.006a.78.78,0,0,0,.139.142A.757.757,0,0,0,112.853,246.037Z" transform="translate(-93.76 -236.249)" fill="url(#linear-gradient-15)"/>
      <path id="Trazado_1889" data-name="Trazado 1889" d="M216.108,340.783a3.494,3.494,0,0,1-.483-.519l-.06-.079a3.509,3.509,0,0,0-.733-.716l-5.389,2.365a3.562,3.562,0,0,1,2.865,1.4l.06.079,0,.006a.787.787,0,0,0,1.013.2l2.613-1.5A.755.755,0,0,0,216.108,340.783Z" transform="translate(-197.015 -330.996)" fill="url(#linear-gradient-16)"/>
    </g>
    <path id="Trazado_1890" data-name="Trazado 1890" d="M75.419,269.8l.365-.209-.013-.018a3.958,3.958,0,0,0-3.456-1.593l-.112.008a3.958,3.958,0,0,1-2.829-.925l-1.056-1.311a4,4,0,0,0-3.08-1.647h0a3.99,3.99,0,0,1-1.619-.413l-.03-.035L61.064,260.5a4.776,4.776,0,0,0-.594-.662l-.031-.029a2.274,2.274,0,0,0-1.2-.6,6.42,6.42,0,0,0,1.507,1.807A4.216,4.216,0,0,1,61.8,262.5l.031.073a3.6,3.6,0,0,0,3.15,2.167h0a3.622,3.622,0,0,1,2.9,1.671l.054.085a3.559,3.559,0,0,0,3.237,1.636l.1-.006a3.565,3.565,0,0,1,3.069,1.394l.06.079,0,.006A.787.787,0,0,0,75.419,269.8Z" transform="translate(-54.879 -257.278)" fill="url(#linear-gradient-17)"/>
    <g id="Grupo_82" data-name="Grupo 82" transform="translate(0 1.772)">
      <path id="Trazado_1891" data-name="Trazado 1891" d="M22.988,271.291l.067.091,0,.006a.873.873,0,0,0,1.142.222l2.954-1.738a.881.881,0,0,0,.129-1.42,3.954,3.954,0,0,1-.543-.6l-.067-.091a3.958,3.958,0,0,0-3.456-1.593l-.112.008a3.958,3.958,0,0,1-3.644-1.872l-.068-.111a4,4,0,0,0-3.252-1.9h0a4,4,0,0,1-3.538-2.469l-.022-.053a4.9,4.9,0,0,0-1.207-1.742L11.343,258a2.273,2.273,0,0,0-1.211-.6c-2.25-.34-3.818-.155-4.243.766-.392.851.326,2.035,1.792,3.385a4.808,4.808,0,0,1,1.193,1.7l.035.084a4.022,4.022,0,0,0,3.544,2.484h0a4.035,4.035,0,0,1,3.26,1.914l.06.1a3.958,3.958,0,0,0,3.644,1.871l.112-.008A3.958,3.958,0,0,1,22.988,271.291Z" transform="translate(-5.783 -257.245)" fill="url(#linear-gradient-18)"/>
      <path id="Trazado_1892" data-name="Trazado 1892" d="M37.774,268.451a3.949,3.949,0,0,1-.543-.6l-.067-.091a3.958,3.958,0,0,0-3.456-1.593l-.112.008a3.958,3.958,0,0,1-3.644-1.872l-.068-.111a4,4,0,0,0-3.252-1.9h0a4,4,0,0,1-3.538-2.469l-.022-.053a4.9,4.9,0,0,0-1.207-1.742L21.831,258a2.273,2.273,0,0,0-1.211-.6,7.334,7.334,0,0,0-3.418.068,5.55,5.55,0,0,0,1.976,2.883,5.078,5.078,0,0,1,1.249,1.8l.036.09a4.2,4.2,0,0,0,3.715,2.63h0A4.207,4.207,0,0,1,27.6,266.9l.063.1a4.124,4.124,0,0,0,3.822,1.98l.118-.009a4.119,4.119,0,0,1,3.625,1.685l.071.1.005.007a.885.885,0,0,0,.347.282l2-1.175a.881.881,0,0,0,.129-1.42Z" transform="translate(-16.271 -257.245)" fill="url(#linear-gradient-19)"/>
      <path id="Trazado_1893" data-name="Trazado 1893" d="M55.653,268.456a3.948,3.948,0,0,1-.543-.6l-.067-.091a3.958,3.958,0,0,0-3.456-1.593l-.112.008a3.958,3.958,0,0,1-3.644-1.872l-.068-.111a4,4,0,0,0-3.252-1.9h0a4,4,0,0,1-3.538-2.469l-.022-.053a4.9,4.9,0,0,0-1.207-1.742l-.031-.029a2.273,2.273,0,0,0-1.211-.6,12.721,12.721,0,0,0-1.832-.158,6.493,6.493,0,0,0,1.91,2.567,5.077,5.077,0,0,1,1.249,1.8l.036.089a4.2,4.2,0,0,0,3.715,2.63h0A4.207,4.207,0,0,1,47,266.364l.063.1a4.124,4.124,0,0,0,3.822,1.98l.118-.009a4.119,4.119,0,0,1,3.625,1.685l.071.1.005.007a.891.891,0,0,0,.075.089l.747-.44A.881.881,0,0,0,55.653,268.456Z" transform="translate(-34.151 -257.25)" fill="url(#linear-gradient-20)"/>
      <path id="Trazado_1894" data-name="Trazado 1894" d="M68.846,269.267a3.949,3.949,0,0,1-.543-.6l-.067-.091a3.958,3.958,0,0,0-3.456-1.593l-.112.008a3.958,3.958,0,0,1-3.644-1.872l-.068-.111a4,4,0,0,0-3.252-1.9h0a4,4,0,0,1-3.538-2.469l-.022-.053a4.9,4.9,0,0,0-1.207-1.742l-.031-.029a2.273,2.273,0,0,0-1.211-.6c-.228-.034-.448-.063-.661-.086a8.886,8.886,0,0,0,1.583,1.845,5.077,5.077,0,0,1,1.249,1.8l.036.09a4.2,4.2,0,0,0,3.715,2.63h0a4.207,4.207,0,0,1,3.419,2.025l.063.1a4.124,4.124,0,0,0,3.822,1.98l.118-.009a4.119,4.119,0,0,1,3.625,1.685l.071.1.005.007a.879.879,0,0,0,.156.163.884.884,0,0,0-.047-1.284Z" transform="translate(-47.343 -258.061)" fill="url(#linear-gradient-21)"/>
      <path id="Trazado_1895" data-name="Trazado 1895" d="M184.826,377.748a3.948,3.948,0,0,1-.543-.6l-.067-.091a3.95,3.95,0,0,0-.824-.822l-6.089,2.746a3.957,3.957,0,0,1,3.226,1.6l.067.091,0,.007a.873.873,0,0,0,1.142.222l2.954-1.738A.881.881,0,0,0,184.826,377.748Z" transform="translate(-163.324 -366.541)" fill="url(#linear-gradient-22)"/>
    </g>
  </g>
</svg>
