<?xml version="1.0" standalone="no"?>
<!DOCTYPE svg PUBLIC "-//W3C//DTD SVG 20010904//EN"
 "http://www.w3.org/TR/2001/REC-SVG-20010904/DTD/svg10.dtd">
<svg version="1.0" xmlns="http://www.w3.org/2000/svg"
 width="87.000000pt" height="80.000000pt" viewBox="0 0 87.000000 80.000000"
 preserveAspectRatio="xMidYMid meet">
<metadata>
Created by potrace 1.16, written by Peter Selinger 2001-2019
</metadata>
<g transform="translate(0.000000,80.000000) scale(0.100000,-0.100000)"
fill="#000000" stroke="none">
<path d="M503 593 c9 -2 17 -11 17 -19 0 -17 -80 -20 -96 -4 -8 8 -19 8 -38 0
-15 -5 -38 -10 -50 -10 -13 0 -29 -7 -36 -15 -18 -21 -23 -19 -38 15 -14 31
-53 42 -68 18 -5 -8 0 -9 15 -5 17 4 20 3 12 -7 -6 -7 -7 -17 -3 -22 4 -5 -5
2 -20 15 -22 19 -30 22 -42 12 -8 -7 -20 -11 -28 -10 -18 3 -48 -11 -48 -23 0
-5 4 -7 9 -4 14 9 41 -4 41 -20 0 -19 -47 -29 -65 -14 -11 9 -15 9 -15 1 0 -7
13 -17 30 -22 16 -6 27 -15 24 -21 -4 -5 4 -9 17 -8 41 4 45 0 19 -20 -25 -19
-25 -19 -5 -34 11 -8 22 -10 23 -5 2 5 15 9 28 9 13 0 24 4 24 9 0 14 30 22
49 12 9 -5 23 -6 30 -1 9 5 -5 10 -38 15 -28 4 -51 10 -51 14 0 4 11 18 25 31
14 13 25 30 25 38 0 19 13 7 16 -14 5 -34 15 -44 43 -44 17 0 34 7 39 16 6 11
11 13 16 5 10 -16 26 -14 26 4 0 8 2 15 4 15 2 0 20 7 41 16 l37 15 -22 -28
-22 -28 49 -7 c125 -19 147 -24 151 -37 4 -12 -7 -13 -64 -6 -82 9 -168 8
-209 -3 -24 -7 -30 -14 -30 -36 -1 -32 -29 -54 -48 -37 -8 6 -18 6 -27 1 -8
-5 -40 -7 -70 -4 -54 6 -55 6 -73 -27 -10 -19 -12 -27 -5 -19 7 9 24 17 37 17
13 1 28 8 32 15 7 10 9 8 9 -5 0 -10 -6 -20 -14 -23 -8 -3 -17 -15 -21 -27 -6
-22 -6 -22 -15 -2 -7 16 -9 16 -9 4 -1 -23 65 -79 92 -79 13 0 27 -4 32 -8 6
-5 36 -14 68 -21 119 -26 36 -50 -90 -26 -53 10 -38 -12 20 -30 83 -27 271
-31 359 -9 40 10 82 24 93 32 18 12 15 13 -25 6 -75 -11 -100 -12 -100 -2 0 6
-7 7 -16 4 -10 -4 -14 -2 -11 6 2 7 10 12 16 10 6 -1 11 2 11 8 0 5 11 10 25
10 32 0 108 35 131 61 9 10 28 19 41 19 14 0 23 6 23 16 0 10 -6 14 -14 11 -8
-3 -22 1 -33 10 -17 14 -17 14 1 9 16 -6 17 -4 6 9 -7 8 -19 15 -28 15 -25 0
-6 11 24 14 23 2 30 9 32 30 2 15 -2 33 -8 41 -14 17 -4 55 15 55 10 0 14 11
13 35 -1 32 -4 35 -30 35 -16 0 -38 5 -49 10 -15 8 -19 8 -17 -2 2 -8 -8 -13
-27 -13 -16 0 -36 -4 -44 -9 -10 -7 -12 -4 -6 14 6 19 4 21 -17 19 -14 -2 -36
6 -52 19 -16 12 -38 21 -50 21 -17 -1 -17 -2 -3 -6z"/>
</g>
</svg>
