<svg id="_007-pizza" data-name="007-pizza" xmlns="http://www.w3.org/2000/svg" xmlns:xlink="http://www.w3.org/1999/xlink" width="33.888" height="29.386" viewBox="0 0 33.888 29.386">
  <defs>
    <linearGradient id="linear-gradient" x1="0.444" y1="0.531" x2="0.5" y2="0.687" gradientUnits="objectBoundingBox">
      <stop offset="0" stop-color="#faa68e"/>
      <stop offset="0.206" stop-color="#fba682"/>
      <stop offset="0.581" stop-color="#fda861"/>
      <stop offset="1" stop-color="#ffa936"/>
    </linearGradient>
    <linearGradient id="linear-gradient-2" x1="0.503" y1="0.506" x2="0.455" y2="0.222" gradientUnits="objectBoundingBox">
      <stop offset="0" stop-color="#f82814" stop-opacity="0"/>
      <stop offset="0.245" stop-color="#f12817" stop-opacity="0.243"/>
      <stop offset="0.605" stop-color="#dd2820" stop-opacity="0.604"/>
      <stop offset="1" stop-color="#c0272d"/>
    </linearGradient>
    <linearGradient id="linear-gradient-3" x1="0.295" y1="0.357" x2="0.538" y2="0.735" gradientUnits="objectBoundingBox">
      <stop offset="0" stop-color="#ffd945"/>
      <stop offset="0.304" stop-color="#ffcd3e"/>
      <stop offset="0.856" stop-color="#ffad2b"/>
      <stop offset="1" stop-color="#ffa325"/>
    </linearGradient>
    <linearGradient id="linear-gradient-4" x1="0.481" y1="0.424" x2="0.603" y2="0.224" gradientUnits="objectBoundingBox">
      <stop offset="0" stop-color="#f82814" stop-opacity="0"/>
      <stop offset="1" stop-color="#c0272d"/>
    </linearGradient>
    <linearGradient id="linear-gradient-5" x1="0.528" y1="0.448" x2="-0.226" y2="-0.64" xlink:href="#linear-gradient-4"/>
    <linearGradient id="linear-gradient-6" x1="0.475" y1="0.467" x2="0.055" y2="-0.508" xlink:href="#linear-gradient-4"/>
    <linearGradient id="linear-gradient-7" x1="0.551" y1="0.508" x2="0.169" y2="-0.353" xlink:href="#linear-gradient-4"/>
    <linearGradient id="linear-gradient-8" x1="0.615" y1="0.608" x2="0.258" y2="-0.125" xlink:href="#linear-gradient-4"/>
    <linearGradient id="linear-gradient-9" x1="0.393" y1="0.133" x2="0.607" y2="0.869" gradientUnits="objectBoundingBox">
      <stop offset="0" stop-color="#bada00"/>
      <stop offset="0.227" stop-color="#b0ce00"/>
      <stop offset="0.638" stop-color="#95ae00"/>
      <stop offset="1" stop-color="#798c00"/>
    </linearGradient>
    <linearGradient id="linear-gradient-10" x1="256.866" y1="-388.341" x2="258.251" y2="-386.422" gradientUnits="objectBoundingBox">
      <stop offset="0" stop-color="#798c00" stop-opacity="0"/>
      <stop offset="0.654" stop-color="#556100" stop-opacity="0.655"/>
      <stop offset="1" stop-color="#464f00"/>
    </linearGradient>
    <linearGradient id="linear-gradient-11" x1="327.674" y1="-495.304" x2="329.058" y2="-493.384" xlink:href="#linear-gradient-10"/>
    <linearGradient id="linear-gradient-12" x1="536.196" y1="-822.649" x2="537.579" y2="-820.73" xlink:href="#linear-gradient-10"/>
    <linearGradient id="linear-gradient-14" x1="282.146" y1="-411.488" x2="283.53" y2="-409.568" xlink:href="#linear-gradient-10"/>
    <linearGradient id="linear-gradient-15" x1="359.702" y1="-524.63" x2="361.085" y2="-522.71" xlink:href="#linear-gradient-10"/>
    <linearGradient id="linear-gradient-16" x1="589.319" y1="-871.288" x2="590.702" y2="-869.369" xlink:href="#linear-gradient-10"/>
    <linearGradient id="linear-gradient-18" x1="249.729" y1="-417.048" x2="251.113" y2="-415.13" xlink:href="#linear-gradient-10"/>
    <linearGradient id="linear-gradient-19" x1="318.631" y1="-531.677" x2="320.016" y2="-529.757" xlink:href="#linear-gradient-10"/>
    <linearGradient id="linear-gradient-20" x1="521.198" y1="-882.976" x2="522.581" y2="-881.058" xlink:href="#linear-gradient-10"/>
    <linearGradient id="linear-gradient-22" x1="204.013" y1="-401.193" x2="205.397" y2="-399.274" xlink:href="#linear-gradient-10"/>
    <linearGradient id="linear-gradient-23" x1="260.715" y1="-511.587" x2="262.099" y2="-509.667" xlink:href="#linear-gradient-10"/>
    <linearGradient id="linear-gradient-24" x1="425.132" y1="-849.656" x2="426.518" y2="-847.738" xlink:href="#linear-gradient-10"/>
    <linearGradient id="linear-gradient-26" x1="257.253" y1="-362.129" x2="258.638" y2="-360.211" xlink:href="#linear-gradient-10"/>
    <linearGradient id="linear-gradient-27" x1="328.163" y1="-462.097" x2="329.548" y2="-460.177" xlink:href="#linear-gradient-10"/>
    <linearGradient id="linear-gradient-28" x1="537.009" y1="-767.571" x2="538.392" y2="-765.652" xlink:href="#linear-gradient-10"/>
    <linearGradient id="linear-gradient-29" x1="7.69" y1="1.614" x2="7.902" y2="2.188" gradientUnits="objectBoundingBox">
      <stop offset="0" stop-color="#ffdecf"/>
      <stop offset="0.379" stop-color="#fdc4b0"/>
      <stop offset="0.766" stop-color="#fbae97"/>
      <stop offset="1" stop-color="#faa68e"/>
    </linearGradient>
    <linearGradient id="linear-gradient-30" x1="3.563" y1="-35.47" x2="3.769" y2="-34.893" xlink:href="#linear-gradient-29"/>
    <linearGradient id="linear-gradient-31" x1="0.415" y1="0.279" x2="0.884" y2="1.274" gradientUnits="objectBoundingBox">
      <stop offset="0" stop-color="#a57c52"/>
      <stop offset="0.134" stop-color="#a26c4a"/>
      <stop offset="0.516" stop-color="#994336"/>
      <stop offset="0.817" stop-color="#942a2a"/>
      <stop offset="1" stop-color="#922125"/>
    </linearGradient>
    <linearGradient id="linear-gradient-32" x1="10.738" y1="2.411" x2="10.95" y2="2.984" xlink:href="#linear-gradient-29"/>
    <linearGradient id="linear-gradient-33" x1="5.276" y1="-48.72" x2="5.481" y2="-48.143" xlink:href="#linear-gradient-29"/>
    <linearGradient id="linear-gradient-34" x1="0.343" y1="0.204" x2="0.965" y2="1.545" xlink:href="#linear-gradient-31"/>
    <linearGradient id="linear-gradient-35" x1="0.393" y1="0.133" x2="0.607" y2="0.869" gradientUnits="objectBoundingBox">
      <stop offset="0" stop-color="#ff6359"/>
      <stop offset="0.224" stop-color="#fe5b50"/>
      <stop offset="0.595" stop-color="#fc4637"/>
      <stop offset="1" stop-color="#f82814"/>
    </linearGradient>
    <linearGradient id="linear-gradient-36" x1="120.151" y1="-208.275" x2="121.536" y2="-206.355" xlink:href="#linear-gradient-2"/>
    <linearGradient id="linear-gradient-37" x1="154.428" y1="-267.106" x2="155.812" y2="-265.187" xlink:href="#linear-gradient-2"/>
    <linearGradient id="linear-gradient-38" x1="248.869" y1="-444.196" x2="250.254" y2="-442.276" xlink:href="#linear-gradient-2"/>
    <linearGradient id="linear-gradient-40" x1="146.216" y1="-220.633" x2="147.601" y2="-218.714" xlink:href="#linear-gradient-2"/>
    <linearGradient id="linear-gradient-41" x1="187.442" y1="-282.76" x2="188.827" y2="-280.84" xlink:href="#linear-gradient-2"/>
    <linearGradient id="linear-gradient-42" x1="303.634" y1="-470.162" x2="305.018" y2="-468.242" xlink:href="#linear-gradient-2"/>
    <linearGradient id="linear-gradient-44" x1="0.869" y1="1.246" x2="-0.143" y2="-1.284" xlink:href="#linear-gradient-10"/>
    <linearGradient id="linear-gradient-45" x1="9.684" y1="1.018" x2="9.895" y2="1.592" xlink:href="#linear-gradient-29"/>
    <linearGradient id="linear-gradient-46" x1="2.229" y1="-44.51" x2="2.434" y2="-43.933" xlink:href="#linear-gradient-29"/>
    <linearGradient id="linear-gradient-47" x1="0.297" y1="-0.07" x2="0.529" y2="0.58" gradientUnits="objectBoundingBox">
      <stop offset="0" stop-color="#8a7889"/>
      <stop offset="0.334" stop-color="#867385"/>
      <stop offset="0.704" stop-color="#7b667b"/>
      <stop offset="1" stop-color="#6e566e"/>
    </linearGradient>
    <linearGradient id="linear-gradient-49" x1="0.297" y1="-0.07" x2="0.529" y2="0.58" xlink:href="#linear-gradient-47"/>
    <linearGradient id="linear-gradient-52" x1="145.974" y1="-205.322" x2="147.358" y2="-203.402" xlink:href="#linear-gradient-2"/>
    <linearGradient id="linear-gradient-53" x1="187.135" y1="-263.366" x2="188.52" y2="-261.446" xlink:href="#linear-gradient-2"/>
    <linearGradient id="linear-gradient-54" x1="303.125" y1="-437.991" x2="304.509" y2="-436.071" xlink:href="#linear-gradient-2"/>
    <linearGradient id="linear-gradient-56" x1="0.566" y1="0.371" x2="0.448" y2="0.6" xlink:href="#linear-gradient"/>
  </defs>
  <path id="Trazado_1678" data-name="Trazado 1678" d="M25.383,97.9s-10.3,6.3-14.1,23.415a1.406,1.406,0,0,0,2.216,1.43,64.167,64.167,0,0,1,27.689-11.766,2.154,2.154,0,0,0,1.47-3.286c-2.028-3.187-6.776-8.094-17.274-9.793Z" transform="translate(-10.498 -93.648)" fill="url(#linear-gradient)"/>
  <path id="Trazado_1679" data-name="Trazado 1679" d="M42.625,244.7a64.069,64.069,0,0,0-30.247,12.13,1.384,1.384,0,0,1-.809.286c-.1.409-.2.824-.295,1.246a1.406,1.406,0,0,0,2.216,1.428,64.166,64.166,0,0,1,27.7-11.767,2.15,2.15,0,0,0,1.471-3.273Z" transform="translate(-10.492 -230.692)" fill="url(#linear-gradient-2)"/>
  <path id="Trazado_1680" data-name="Trazado 1680" d="M32.7,97.318s-2.681-9.625-18.726-11.849c0,0-10.248,6.211-13.94,22.69a1.386,1.386,0,0,0,2.224,1.333c.4-.294.831-.608,1.3-.938a.894.894,0,0,1,1.406.733v.051a1.383,1.383,0,0,0,2.766,0v-1.449a3.436,3.436,0,0,1,1.791-3.017,67.175,67.175,0,0,1,9.555-4.278.9.9,0,0,1,1.195.842,1.383,1.383,0,0,0,2.766,0v-1.78a.447.447,0,0,1,.326-.43l.009,0a.449.449,0,0,1,.571.433v4.506a1.383,1.383,0,1,0,2.766,0v-3.846a2.385,2.385,0,0,1,1.925-2.343Q30.612,97.59,32.7,97.318Z" transform="translate(0 -82.041)" fill="url(#linear-gradient-3)"/>
  <path id="Trazado_1681" data-name="Trazado 1681" d="M147.52,85.47a23.535,23.535,0,0,0-4.468,3.9l13.087,13.087a1.378,1.378,0,0,0,.447-1.016v-1.78a.447.447,0,0,1,.326-.43l.009,0a.449.449,0,0,1,.571.433v4.15l1.7,1.7a1.382,1.382,0,0,0,1.065-1.345v-3.846a2.385,2.385,0,0,1,1.925-2.343q1.975-.383,4.063-.655S163.565,87.694,147.52,85.47Z" transform="translate(-133.547 -82.042)" fill="url(#linear-gradient-4)"/>
  <path id="Trazado_1682" data-name="Trazado 1682" d="M163.936,116.33a3.2,3.2,0,0,0-.473-.435,4.664,4.664,0,0,0-5.31,0,2.351,2.351,0,0,0-.216,3.826L168.621,130.4a1.382,1.382,0,0,0,1.038-1.338v-1.78a.447.447,0,0,1,.326-.43l.009,0a.449.449,0,0,1,.571.433v4.506a1.377,1.377,0,0,0,.31.872,3.219,3.219,0,0,0,.311.282,1.382,1.382,0,0,0,2.144-1.154v-3.846a2.39,2.39,0,0,1,.618-1.6Z" transform="translate(-146.618 -109.67)" fill="url(#linear-gradient-5)"/>
  <path id="Trazado_1683" data-name="Trazado 1683" d="M107.286,187.2a3.291,3.291,0,0,0-2.475-.98c-1.6,0-2.9.914-2.9,2.041a1.705,1.705,0,0,0,.632,1.272l6.976,7c1.471-.654,3.038-1.288,4.7-1.881a.885.885,0,0,1,.452-.039Z" transform="translate(-95.142 -176.096)" fill="url(#linear-gradient-6)"/>
  <path id="Trazado_1684" data-name="Trazado 1684" d="M215.813,212.69a3.319,3.319,0,0,0-2.44-.942c-1.6,0-2.9.914-2.9,2.041,0,.046,0,.092.007.137a4.018,4.018,0,0,0-4.1.271,2.005,2.005,0,0,0-.213,3.24l2.054,2.054q1.282-.52,2.649-1.009a.9.9,0,0,1,1.195.842,1.383,1.383,0,0,0,2.766,0v-1.78a.447.447,0,0,1,.326-.43l.009,0a.449.449,0,0,1,.571.433v4.506a1.383,1.383,0,1,0,2.766,0V218.2a2.391,2.391,0,0,1,.931-1.894Z" transform="translate(-191.791 -199.929)" fill="url(#linear-gradient-7)"/>
  <path id="Trazado_1685" data-name="Trazado 1685" d="M44.391,296.137l-2.377-2.377a3.319,3.319,0,0,0-2.44-.942,3.024,3.024,0,0,0-2.726,1.349,4.006,4.006,0,0,0-3.547.506,2.005,2.005,0,0,0-.213,3.24l4.857,4.857v-1.311a3.436,3.436,0,0,1,1.791-3.017c1.416-.772,2.971-1.552,4.654-2.307Z" transform="translate(-30.213 -275.613)" fill="url(#linear-gradient-8)"/>
  <g id="Grupo_27" data-name="Grupo 27" transform="translate(0.637 6.871)">
    <g id="Grupo_23" data-name="Grupo 23" transform="translate(4.766 6.791)">
      <path id="Trazado_1686" data-name="Trazado 1686" d="M91.264,250.786a.246.246,0,1,0-.333.1A.246.246,0,0,0,91.264,250.786Z" transform="translate(-90.17 -249.697)" fill="#ffeaa2"/>
      <path id="Trazado_1687" data-name="Trazado 1687" d="M81.6,257.042a.194.194,0,1,0,.081.263A.194.194,0,0,0,81.6,257.042Z" transform="translate(-81.316 -255.854)" fill="#ffeaa2"/>
      <path id="Trazado_1688" data-name="Trazado 1688" d="M86.41,272.42a.117.117,0,1,0,.049.158A.117.117,0,0,0,86.41,272.42Z" transform="translate(-85.911 -270.218)" fill="#ffeaa2"/>
      <path id="Trazado_1689" data-name="Trazado 1689" d="M110.56,277.482a.246.246,0,1,0,.239.253A.246.246,0,0,0,110.56,277.482Z" transform="translate(-108.38 -274.956)" fill="#ffeaa2"/>
      <path id="Trazado_1690" data-name="Trazado 1690" d="M130.588,251.271a.194.194,0,1,0,.189.2A.194.194,0,0,0,130.588,251.271Z" transform="translate(-127.127 -250.487)" fill="#ffeaa2"/>
      <path id="Trazado_1691" data-name="Trazado 1691" d="M104.526,252.382a.117.117,0,1,0,.114.12A.117.117,0,0,0,104.526,252.382Z" transform="translate(-102.871 -251.525)" fill="#ffeaa2"/>
      <path id="Trazado_1692" data-name="Trazado 1692" d="M98.412,267.511a.182.182,0,1,0,.218.137A.182.182,0,0,0,98.412,267.511Z" transform="translate(-97.144 -265.644)" fill="#ffeaa2"/>
      <path id="Trazado_1693" data-name="Trazado 1693" d="M101.9,259.88a.144.144,0,1,0,.172.108A.144.144,0,0,0,101.9,259.88Z" transform="translate(-100.424 -258.521)" fill="#ffeaa2"/>
      <path id="Trazado_1694" data-name="Trazado 1694" d="M93.191,261.757a.087.087,0,1,0-.1-.065A.087.087,0,0,0,93.191,261.757Z" transform="translate(-92.303 -260.117)" fill="#ffeaa2"/>
      <path id="Trazado_1695" data-name="Trazado 1695" d="M159.957,239.841a.246.246,0,1,0-.333.1A.246.246,0,0,0,159.957,239.841Z" transform="translate(-154.299 -239.479)" fill="#ffeaa2"/>
      <path id="Trazado_1696" data-name="Trazado 1696" d="M144.523,276.469a.194.194,0,1,0,.081.263A.194.194,0,0,0,144.523,276.469Z" transform="translate(-140.056 -273.99)" fill="#ffeaa2"/>
      <path id="Trazado_1697" data-name="Trazado 1697" d="M141.489,260.5a.117.117,0,1,0,.049.158A.117.117,0,0,0,141.489,260.5Z" transform="translate(-137.33 -259.092)" fill="#ffeaa2"/>
      <path id="Trazado_1698" data-name="Trazado 1698" d="M183.1,249.92a.246.246,0,1,0,.239.253A.246.246,0,0,0,183.1,249.92Z" transform="translate(-176.097 -249.226)" fill="#ffeaa2"/>
      <path id="Trazado_1699" data-name="Trazado 1699" d="M180.782,242.168a.194.194,0,1,0-.2.189A.194.194,0,0,0,180.782,242.168Z" transform="translate(-173.81 -241.802)" fill="#ffeaa2"/>
      <path id="Trazado_1700" data-name="Trazado 1700" d="M173.22,241.436a.117.117,0,1,0,.114.12A.117.117,0,0,0,173.22,241.436Z" transform="translate(-167.001 -241.306)" fill="#ffeaa2"/>
      <path id="Trazado_1701" data-name="Trazado 1701" d="M156.946,266.969a.182.182,0,1,0,.218.137A.182.182,0,0,0,156.946,266.969Z" transform="translate(-151.788 -265.138)" fill="#ffeaa2"/>
      <path id="Trazado_1702" data-name="Trazado 1702" d="M170.588,248.934a.144.144,0,1,0,.172.108A.144.144,0,0,0,170.588,248.934Z" transform="translate(-164.552 -248.303)" fill="#ffeaa2"/>
      <path id="Trazado_1703" data-name="Trazado 1703" d="M161.885,250.812a.087.087,0,1,0-.1-.065A.087.087,0,0,0,161.885,250.812Z" transform="translate(-156.433 -249.899)" fill="#ffeaa2"/>
    </g>
    <g id="Grupo_24" data-name="Grupo 24" transform="translate(11.883)">
      <path id="Trazado_1704" data-name="Trazado 1704" d="M198.376,299.289a.246.246,0,1,0-.333.1A.246.246,0,0,0,198.376,299.289Z" transform="translate(-197.282 -288.186)" fill="#ffeaa2"/>
      <path id="Trazado_1705" data-name="Trazado 1705" d="M188.714,305.545a.194.194,0,1,0,.081.263A.194.194,0,0,0,188.714,305.545Z" transform="translate(-188.428 -294.343)" fill="#ffeaa2"/>
      <path id="Trazado_1706" data-name="Trazado 1706" d="M193.523,320.923a.117.117,0,1,0,.049.158A.117.117,0,0,0,193.523,320.923Z" transform="translate(-193.024 -308.708)" fill="#ffeaa2"/>
      <path id="Trazado_1707" data-name="Trazado 1707" d="M217.673,325.985a.246.246,0,1,0,.239.253A.246.246,0,0,0,217.673,325.985Z" transform="translate(-215.493 -313.446)" fill="#ffeaa2"/>
      <path id="Trazado_1708" data-name="Trazado 1708" d="M381.714,240.9a.194.194,0,1,0-.092.259A.194.194,0,0,0,381.714,240.9Z" transform="translate(-368.525 -233.913)" fill="#ffeaa2"/>
      <path id="Trazado_1709" data-name="Trazado 1709" d="M211.639,300.885a.117.117,0,1,0,.114.12A.117.117,0,0,0,211.639,300.885Z" transform="translate(-209.984 -290.014)" fill="#ffeaa2"/>
      <path id="Trazado_1710" data-name="Trazado 1710" d="M205.524,316.014a.182.182,0,1,0,.218.137A.182.182,0,0,0,205.524,316.014Z" transform="translate(-204.256 -304.133)" fill="#ffeaa2"/>
      <path id="Trazado_1711" data-name="Trazado 1711" d="M209.007,308.383a.144.144,0,1,0,.172.108A.144.144,0,0,0,209.007,308.383Z" transform="translate(-207.536 -297.011)" fill="#ffeaa2"/>
      <path id="Trazado_1712" data-name="Trazado 1712" d="M200.3,310.26a.087.087,0,1,0-.1-.065A.087.087,0,0,0,200.3,310.26Z" transform="translate(-199.415 -298.607)" fill="#ffeaa2"/>
      <path id="Trazado_1713" data-name="Trazado 1713" d="M198.635,137.644a.246.246,0,1,0-.333.1A.246.246,0,0,0,198.635,137.644Z" transform="translate(-197.524 -137.282)" fill="#ffeaa2"/>
      <path id="Trazado_1714" data-name="Trazado 1714" d="M365.572,264.748a.194.194,0,1,0-.2.191A.194.194,0,0,0,365.572,264.748Z" transform="translate(-353.439 -256.094)" fill="#ffeaa2"/>
      <path id="Trazado_1715" data-name="Trazado 1715" d="M379.987,254.431a.117.117,0,1,0-.119.115A.117.117,0,0,0,379.987,254.431Z" transform="translate(-367.04 -246.535)" fill="#ffeaa2"/>
      <path id="Trazado_1716" data-name="Trazado 1716" d="M221.775,147.723a.246.246,0,1,0,.239.253A.246.246,0,0,0,221.775,147.723Z" transform="translate(-219.323 -147.029)" fill="#ffeaa2"/>
      <path id="Trazado_1717" data-name="Trazado 1717" d="M219.46,139.971a.194.194,0,1,0-.2.189A.194.194,0,0,0,219.46,139.971Z" transform="translate(-217.036 -139.605)" fill="#ffeaa2"/>
      <path id="Trazado_1718" data-name="Trazado 1718" d="M211.9,139.24a.117.117,0,1,0,.114.12A.117.117,0,0,0,211.9,139.24Z" transform="translate(-210.225 -139.11)" fill="#ffeaa2"/>
      <path id="Trazado_1719" data-name="Trazado 1719" d="M379.923,271.456a.182.182,0,1,0-.023.256A.182.182,0,0,0,379.923,271.456Z" transform="translate(-366.898 -262.479)" fill="#ffeaa2"/>
      <path id="Trazado_1720" data-name="Trazado 1720" d="M209.266,146.738a.144.144,0,1,0,.172.108A.144.144,0,0,0,209.266,146.738Z" transform="translate(-207.777 -146.106)" fill="#ffeaa2"/>
      <path id="Trazado_1721" data-name="Trazado 1721" d="M200.562,148.615a.087.087,0,1,0-.1-.065A.087.087,0,0,0,200.562,148.615Z" transform="translate(-199.657 -147.702)" fill="#ffeaa2"/>
    </g>
    <g id="Grupo_25" data-name="Grupo 25" transform="translate(13.572 3.462)">
      <path id="Trazado_1722" data-name="Trazado 1722" d="M305.713,217.885a.246.246,0,1,0,.339-.078A.246.246,0,0,0,305.713,217.885Z" transform="translate(-299.573 -215.883)" fill="#ffeaa2"/>
      <path id="Trazado_1723" data-name="Trazado 1723" d="M317.2,213.85a.194.194,0,1,0-.061-.268A.194.194,0,0,0,317.2,213.85Z" transform="translate(-310.25 -211.889)" fill="#ffeaa2"/>
      <path id="Trazado_1724" data-name="Trazado 1724" d="M315.605,200.409a.117.117,0,1,0-.037-.162A.117.117,0,0,0,315.605,200.409Z" transform="translate(-308.792 -199.474)" fill="#ffeaa2"/>
      <path id="Trazado_1725" data-name="Trazado 1725" d="M288.393,189.869a.246.246,0,1,0-.22-.27A.246.246,0,0,0,288.393,189.869Z" transform="translate(-283.233 -189.378)" fill="#ffeaa2"/>
      <path id="Trazado_1726" data-name="Trazado 1726" d="M267.93,216.075a.194.194,0,1,0-.174-.213A.194.194,0,0,0,267.93,216.075Z" transform="translate(-264.172 -213.939)" fill="#ffeaa2"/>
      <path id="Trazado_1727" data-name="Trazado 1727" d="M296.091,219.09a.117.117,0,1,0-.1-.128A.117.117,0,0,0,296.091,219.09Z" transform="translate(-290.527 -216.897)" fill="#ffeaa2"/>
      <path id="Trazado_1728" data-name="Trazado 1728" d="M301.529,202.557a.182.182,0,1,0-.207-.152A.182.182,0,0,0,301.529,202.557Z" transform="translate(-295.506 -201.344)" fill="#ffeaa2"/>
      <path id="Trazado_1729" data-name="Trazado 1729" d="M298.54,211.032a.144.144,0,1,0-.164-.12A.144.144,0,0,0,298.54,211.032Z" transform="translate(-292.758 -209.326)" fill="#ffeaa2"/>
      <path id="Trazado_1730" data-name="Trazado 1730" d="M308.9,211.445a.087.087,0,1,0,.1.072A.087.087,0,0,0,308.9,211.445Z" transform="translate(-302.515 -209.978)" fill="#ffeaa2"/>
      <path id="Trazado_1731" data-name="Trazado 1731" d="M236.41,223.85a.246.246,0,1,0,.339-.078A.246.246,0,0,0,236.41,223.85Z" transform="translate(-234.875 -221.451)" fill="#ffeaa2"/>
      <path id="Trazado_1732" data-name="Trazado 1732" d="M255.847,189.937a.194.194,0,1,0-.061-.268A.194.194,0,0,0,255.847,189.937Z" transform="translate(-252.971 -189.565)" fill="#ffeaa2"/>
      <path id="Trazado_1733" data-name="Trazado 1733" d="M259.81,208.325a.117.117,0,1,0-.037-.162A.117.117,0,0,0,259.81,208.325Z" transform="translate(-256.704 -206.864)" fill="#ffeaa2"/>
      <path id="Trazado_1734" data-name="Trazado 1734" d="M214.058,212.13a.246.246,0,1,0-.22-.27A.246.246,0,0,0,214.058,212.13Z" transform="translate(-213.837 -210.16)" fill="#ffeaa2"/>
      <path id="Trazado_1735" data-name="Trazado 1735" d="M217.209,221.535a.194.194,0,1,0,.213-.174A.194.194,0,0,0,217.209,221.535Z" transform="translate(-216.984 -219.235)" fill="#ffeaa2"/>
      <path id="Trazado_1736" data-name="Trazado 1736" d="M226.787,225.054a.117.117,0,1,0-.1-.128A.117.117,0,0,0,226.787,225.054Z" transform="translate(-225.828 -222.465)" fill="#ffeaa2"/>
      <path id="Trazado_1737" data-name="Trazado 1737" d="M243.108,198.878a.182.182,0,1,0-.207-.152A.182.182,0,0,0,243.108,198.878Z" transform="translate(-240.967 -197.909)" fill="#ffeaa2"/>
      <path id="Trazado_1738" data-name="Trazado 1738" d="M229.236,217a.144.144,0,1,0-.164-.12A.144.144,0,0,0,229.236,217Z" transform="translate(-228.059 -214.895)" fill="#ffeaa2"/>
      <path id="Trazado_1739" data-name="Trazado 1739" d="M239.6,217.41a.087.087,0,1,0,.1.073A.087.087,0,0,0,239.6,217.41Z" transform="translate(-237.816 -215.546)" fill="#ffeaa2"/>
    </g>
    <g id="Grupo_26" data-name="Grupo 26" transform="translate(0 15.656)">
      <path id="Trazado_1740" data-name="Trazado 1740" d="M96.024,392.226a.246.246,0,1,0,.279-.209A.246.246,0,0,0,96.024,392.226Z" transform="translate(-90.278 -390.744)" fill="#ffeaa2"/>
      <path id="Trazado_1741" data-name="Trazado 1741" d="M104.655,384.236a.194.194,0,1,0-.165-.22A.194.194,0,0,0,104.655,384.236Z" transform="translate(-98.182 -383.122)" fill="#ffeaa2"/>
      <path id="Trazado_1742" data-name="Trazado 1742" d="M97.394,373.132a.117.117,0,1,0-.1-.133A.117.117,0,0,0,97.394,373.132Z" transform="translate(-91.466 -372.899)" fill="#ffeaa2"/>
      <path id="Trazado_1743" data-name="Trazado 1743" d="M68.825,373.646a.246.246,0,1,0-.311-.157A.246.246,0,0,0,68.825,373.646Z" transform="translate(-64.587 -373.148)" fill="#ffeaa2"/>
      <path id="Trazado_1744" data-name="Trazado 1744" d="M60.521,406.259a.194.194,0,1,0-.245-.124A.194.194,0,0,0,60.521,406.259Z" transform="translate(-56.899 -403.689)" fill="#ffeaa2"/>
      <path id="Trazado_1745" data-name="Trazado 1745" d="M87.136,398.122a.117.117,0,1,0-.148-.075A.117.117,0,0,0,87.136,398.122Z" transform="translate(-81.84 -396.233)" fill="#ffeaa2"/>
      <path id="Trazado_1746" data-name="Trazado 1746" d="M85.69,380.359a.182.182,0,1,0-.251-.055A.182.182,0,0,0,85.69,380.359Z" transform="translate(-80.372 -379.551)" fill="#ffeaa2"/>
      <path id="Trazado_1747" data-name="Trazado 1747" d="M86.225,389.581a.144.144,0,1,0-.2-.044A.144.144,0,0,0,86.225,389.581Z" transform="translate(-80.926 -388.226)" fill="#ffeaa2"/>
      <path id="Trazado_1748" data-name="Trazado 1748" d="M95.605,386.15a.087.087,0,1,0,.12.026A.087.087,0,0,0,95.605,386.15Z" transform="translate(-89.852 -385.257)" fill="#ffeaa2"/>
      <path id="Trazado_1749" data-name="Trazado 1749" d="M35.1,425.795a.246.246,0,1,0,.279-.209A.246.246,0,0,0,35.1,425.795Z" transform="translate(-33.401 -422.082)" fill="#ffeaa2"/>
      <path id="Trazado_1750" data-name="Trazado 1750" d="M38.873,387.271a.194.194,0,1,0-.165-.22A.194.194,0,0,0,38.873,387.271Z" transform="translate(-36.771 -385.955)" fill="#ffeaa2"/>
      <path id="Trazado_1751" data-name="Trazado 1751" d="M49.61,403a.117.117,0,1,0-.1-.133A.117.117,0,0,0,49.61,403Z" transform="translate(-46.856 -400.785)" fill="#ffeaa2"/>
      <path id="Trazado_1752" data-name="Trazado 1752" d="M9.913,424.15a.246.246,0,1,0-.311-.157A.246.246,0,0,0,9.913,424.15Z" transform="translate(-9.59 -420.296)" fill="#ffeaa2"/>
      <path id="Trazado_1753" data-name="Trazado 1753" d="M16.377,431.828a.194.194,0,1,0,.124-.245A.194.194,0,0,0,16.377,431.828Z" transform="translate(-15.917 -427.674)" fill="#ffeaa2"/>
      <path id="Trazado_1754" data-name="Trazado 1754" d="M26.212,431.691a.117.117,0,1,0-.148-.075A.117.117,0,0,0,26.212,431.691Z" transform="translate(-24.964 -427.571)" fill="#ffeaa2"/>
      <path id="Trazado_1755" data-name="Trazado 1755" d="M30.8,400.7a.182.182,0,1,0-.251-.055A.182.182,0,0,0,30.8,400.7Z" transform="translate(-29.129 -398.538)" fill="#ffeaa2"/>
      <path id="Trazado_1756" data-name="Trazado 1756" d="M25.3,423.15a.144.144,0,1,0-.2-.044A.144.144,0,0,0,25.3,423.15Z" transform="translate(-24.05 -419.564)" fill="#ffeaa2"/>
      <path id="Trazado_1757" data-name="Trazado 1757" d="M34.681,419.719a.087.087,0,1,0,.12.026A.087.087,0,0,0,34.681,419.719Z" transform="translate(-32.977 -416.595)" fill="#ffeaa2"/>
    </g>
  </g>
  <g id="Grupo_29" data-name="Grupo 29" transform="translate(12.929 10.318)">
    <ellipse id="Elipse_15" data-name="Elipse 15" cx="1.526" cy="1.075" rx="1.526" ry="1.075" fill="url(#linear-gradient-9)"/>
    <g id="Grupo_28" data-name="Grupo 28" transform="translate(0.719 0.182)">
      <circle id="Elipse_16" data-name="Elipse 16" cx="0.244" cy="0.244" r="0.244" transform="translate(0.401)" fill="url(#linear-gradient-10)"/>
      <circle id="Elipse_17" data-name="Elipse 17" cx="0.192" cy="0.192" r="0.192" transform="translate(0 0.682)" fill="url(#linear-gradient-11)"/>
      <circle id="Elipse_18" data-name="Elipse 18" cx="0.116" cy="0.116" r="0.116" transform="translate(0.915 0.92)" fill="url(#linear-gradient-12)"/>
    </g>
  </g>
  <g id="Grupo_31" data-name="Grupo 31" transform="translate(6.611 15.792)">
    <ellipse id="Elipse_19" data-name="Elipse 19" cx="1.526" cy="1.075" rx="1.526" ry="1.075" fill="url(#linear-gradient-9)"/>
    <g id="Grupo_30" data-name="Grupo 30" transform="translate(0.719 0.182)">
      <circle id="Elipse_20" data-name="Elipse 20" cx="0.244" cy="0.244" r="0.244" transform="translate(0.401)" fill="url(#linear-gradient-14)"/>
      <circle id="Elipse_21" data-name="Elipse 21" cx="0.192" cy="0.192" r="0.192" transform="translate(0 0.682)" fill="url(#linear-gradient-15)"/>
      <circle id="Elipse_22" data-name="Elipse 22" cx="0.116" cy="0.116" r="0.116" transform="translate(0.915 0.92)" fill="url(#linear-gradient-16)"/>
    </g>
  </g>
  <g id="Grupo_33" data-name="Grupo 33" transform="translate(14.477 17.365)">
    <ellipse id="Elipse_23" data-name="Elipse 23" cx="1.526" cy="1.075" rx="1.526" ry="1.075" fill="url(#linear-gradient-9)"/>
    <g id="Grupo_32" data-name="Grupo 32" transform="translate(0.719 0.182)">
      <circle id="Elipse_24" data-name="Elipse 24" cx="0.244" cy="0.244" r="0.244" transform="translate(0.401)" fill="url(#linear-gradient-18)"/>
      <circle id="Elipse_25" data-name="Elipse 25" cx="0.192" cy="0.192" r="0.192" transform="translate(0 0.682)" fill="url(#linear-gradient-19)"/>
      <circle id="Elipse_26" data-name="Elipse 26" cx="0.116" cy="0.116" r="0.116" transform="translate(0.915 0.92)" fill="url(#linear-gradient-20)"/>
    </g>
  </g>
  <g id="Grupo_35" data-name="Grupo 35" transform="translate(25.728 13.807)">
    <ellipse id="Elipse_27" data-name="Elipse 27" cx="1.526" cy="1.075" rx="1.526" ry="1.075" transform="translate(0 0)" fill="url(#linear-gradient-9)"/>
    <g id="Grupo_34" data-name="Grupo 34" transform="translate(0.719 0.182)">
      <circle id="Elipse_28" data-name="Elipse 28" cx="0.244" cy="0.244" r="0.244" transform="translate(0.401)" fill="url(#linear-gradient-22)"/>
      <circle id="Elipse_29" data-name="Elipse 29" cx="0.192" cy="0.192" r="0.192" transform="translate(0 0.682)" fill="url(#linear-gradient-23)"/>
      <circle id="Elipse_30" data-name="Elipse 30" cx="0.116" cy="0.116" r="0.116" transform="translate(0.915 0.92)" fill="url(#linear-gradient-24)"/>
    </g>
  </g>
  <g id="Grupo_37" data-name="Grupo 37" transform="translate(13.011 3.926)">
    <ellipse id="Elipse_31" data-name="Elipse 31" cx="1.526" cy="1.075" rx="1.526" ry="1.075" transform="translate(0 0)" fill="url(#linear-gradient-9)"/>
    <g id="Grupo_36" data-name="Grupo 36" transform="translate(0.719 0.182)">
      <circle id="Elipse_32" data-name="Elipse 32" cx="0.244" cy="0.244" r="0.244" transform="translate(0.401)" fill="url(#linear-gradient-26)"/>
      <circle id="Elipse_33" data-name="Elipse 33" cx="0.192" cy="0.192" r="0.192" transform="translate(0 0.682)" fill="url(#linear-gradient-27)"/>
      <circle id="Elipse_34" data-name="Elipse 34" cx="0.116" cy="0.116" r="0.116" transform="translate(0.915 0.92)" fill="url(#linear-gradient-28)"/>
    </g>
  </g>
  <g id="Grupo_38" data-name="Grupo 38" transform="translate(10.435 5.395)">
    <path id="Trazado_1758" data-name="Trazado 1758" d="M163.457,115.894a4.664,4.664,0,0,0-5.31,0,2.372,2.372,0,0,0,0,4,4.664,4.664,0,0,0,5.31,0A2.372,2.372,0,0,0,163.457,115.894Zm-4.341,2.722a1.232,1.232,0,0,1,0-2.221,3.319,3.319,0,0,1,3.371,0,1.232,1.232,0,0,1,0,2.221A3.32,3.32,0,0,1,159.116,118.616Z" transform="translate(-157.048 -115.065)" fill="url(#linear-gradient-29)"/>
    <path id="Trazado_1759" data-name="Trazado 1759" d="M167.464,123.953a4,4,0,0,0,4.417,0,1.866,1.866,0,0,0,0-3.211,4,4,0,0,0-4.417,0A1.866,1.866,0,0,0,167.464,123.953Zm3.894-2.878a1.232,1.232,0,0,1,0,2.221,3.319,3.319,0,0,1-3.371,0,1.232,1.232,0,0,1,0-2.221A3.32,3.32,0,0,1,171.358,121.074Z" transform="translate(-165.918 -119.744)" fill="url(#linear-gradient-30)"/>
  </g>
  <path id="Trazado_1760" data-name="Trazado 1760" d="M23.839,361.317a1.431,1.431,0,0,0,1.564-.351c.062-.08.034-.174-.052-.27a.212.212,0,0,1,.07-.332l.022-.014c.169-.111.13-.306-.075-.38l-.819-.294c-.206-.074-.453.019-.481.18a.339.339,0,0,1-.344.228.4.4,0,0,0-.31.114C23.1,360.6,23.289,361.105,23.839,361.317Z" transform="translate(-21.717 -338.004)" fill="url(#linear-gradient-31)"/>
  <g id="Grupo_39" data-name="Grupo 39" transform="translate(2.15 18.354)">
    <path id="Trazado_1761" data-name="Trazado 1761" d="M37.833,310.8a3.981,3.981,0,0,0-4.532,0,2.025,2.025,0,0,0,0,3.418,3.981,3.981,0,0,0,4.532,0A2.025,2.025,0,0,0,37.833,310.8Zm-3.705,2.323a1.052,1.052,0,0,1,0-1.9,2.833,2.833,0,0,1,2.878,0,1.052,1.052,0,0,1,0,1.9A2.834,2.834,0,0,1,34.127,313.121Z" transform="translate(-32.362 -310.09)" fill="url(#linear-gradient-32)"/>
    <path id="Trazado_1762" data-name="Trazado 1762" d="M41.253,317.675a3.414,3.414,0,0,0,3.77,0,1.593,1.593,0,0,0,0-2.74,3.414,3.414,0,0,0-3.77,0A1.593,1.593,0,0,0,41.253,317.675Zm3.324-2.457a1.052,1.052,0,0,1,0,1.9,2.833,2.833,0,0,1-2.878,0,1.052,1.052,0,0,1,0-1.9A2.834,2.834,0,0,1,44.577,315.218Z" transform="translate(-39.933 -314.082)" fill="url(#linear-gradient-33)"/>
  </g>
  <path id="Trazado_1763" data-name="Trazado 1763" d="M315.709,268.447a1.43,1.43,0,0,0-1.565.351c-.062.08-.034.174.052.27a.212.212,0,0,1-.07.332l-.022.014c-.169.111-.13.306.075.38l.819.294c.206.074.453-.019.481-.18a.339.339,0,0,1,.344-.228.4.4,0,0,0,.31-.114C316.448,269.16,316.258,268.659,315.709,268.447Z" transform="translate(-293.134 -252.772)" fill="url(#linear-gradient-34)"/>
  <g id="Grupo_41" data-name="Grupo 41" transform="translate(18.685 11.819)">
    <ellipse id="Elipse_35" data-name="Elipse 35" cx="2.897" cy="2.041" rx="2.897" ry="2.041" transform="translate(0 0)" fill="url(#linear-gradient-35)"/>
    <g id="Grupo_40" data-name="Grupo 40" transform="translate(1.365 0.345)">
      <circle id="Elipse_36" data-name="Elipse 36" cx="0.463" cy="0.463" r="0.463" transform="translate(0.762)" fill="url(#linear-gradient-36)"/>
      <circle id="Elipse_37" data-name="Elipse 37" cx="0.365" cy="0.365" r="0.365" transform="translate(0 1.294)" fill="url(#linear-gradient-37)"/>
      <circle id="Elipse_38" data-name="Elipse 38" cx="0.22" cy="0.22" r="0.22" transform="translate(1.738 1.746)" fill="url(#linear-gradient-38)"/>
    </g>
  </g>
  <g id="Grupo_43" data-name="Grupo 43" transform="translate(6.464 17.206)">
    <ellipse id="Elipse_39" data-name="Elipse 39" cx="2.897" cy="2.041" rx="2.897" ry="2.041" fill="url(#linear-gradient-35)"/>
    <g id="Grupo_42" data-name="Grupo 42" transform="translate(1.365 0.345)">
      <circle id="Elipse_40" data-name="Elipse 40" cx="0.463" cy="0.463" r="0.463" transform="translate(0.762)" fill="url(#linear-gradient-40)"/>
      <circle id="Elipse_41" data-name="Elipse 41" cx="0.365" cy="0.365" r="0.365" transform="translate(0 1.294)" fill="url(#linear-gradient-41)"/>
      <circle id="Elipse_42" data-name="Elipse 42" cx="0.22" cy="0.22" r="0.22" transform="translate(1.738 1.746)" fill="url(#linear-gradient-42)"/>
    </g>
  </g>
  <path id="Trazado_1764" data-name="Trazado 1764" d="M209.726,229.311a1.43,1.43,0,0,0-1.564.351c-.062.08-.034.174.052.27a.212.212,0,0,1-.07.332l-.022.014c-.169.111-.13.306.075.38l.819.294c.206.074.453-.019.481-.18a.339.339,0,0,1,.344-.228.4.4,0,0,0,.31-.114C210.465,230.024,210.275,229.523,209.726,229.311Z" transform="translate(-194.193 -216.236)" fill="url(#linear-gradient-34)"/>
  <path id="Trazado_1765" data-name="Trazado 1765" d="M223.211,297.334c.673-.112,1.174-.537,1.174-1.045,0-.594-.683-1.075-1.526-1.075a1.752,1.752,0,0,0-1.279.49Z" transform="translate(-206.858 -277.849)" fill="url(#linear-gradient-44)"/>
  <g id="Grupo_44" data-name="Grupo 44" transform="translate(13.651 13.56)">
    <path id="Trazado_1766" data-name="Trazado 1766" d="M210.911,238.658a3.981,3.981,0,0,0-4.532,0,2.025,2.025,0,0,0,0,3.418,3.981,3.981,0,0,0,4.532,0A2.025,2.025,0,0,0,210.911,238.658Zm-3.705,2.323a1.052,1.052,0,0,1,0-1.9,2.833,2.833,0,0,1,2.878,0,1.052,1.052,0,0,1,0,1.9A2.834,2.834,0,0,1,207.205,240.981Z" transform="translate(-205.44 -237.95)" fill="url(#linear-gradient-45)"/>
    <path id="Trazado_1767" data-name="Trazado 1767" d="M214.332,245.535a3.414,3.414,0,0,0,3.77,0,1.593,1.593,0,0,0,0-2.74,3.414,3.414,0,0,0-3.77,0A1.593,1.593,0,0,0,214.332,245.535Zm3.324-2.457a1.052,1.052,0,0,1,0,1.9,2.833,2.833,0,0,1-2.878,0,1.052,1.052,0,0,1,0-1.9A2.834,2.834,0,0,1,217.656,243.078Z" transform="translate(-213.012 -241.942)" fill="url(#linear-gradient-46)"/>
  </g>
  <path id="Trazado_1768" data-name="Trazado 1768" d="M57.516,278.646c-.73,0-1.322.422-1.322.942s.592.942,1.322.942,1.322-.422,1.322-.942S58.246,278.646,57.516,278.646Zm0,1.341c-.31,0-.561-.179-.561-.4s.251-.4.561-.4.561.179.561.4S57.826,279.987,57.516,279.987Z" transform="translate(-52.46 -262.382)" fill="url(#linear-gradient-47)"/>
  <path id="Trazado_1769" data-name="Trazado 1769" d="M158.369,251.023c-.73,0-1.322.422-1.322.942s.592.942,1.322.942,1.322-.422,1.322-.942S159.1,251.023,158.369,251.023Zm0,1.341c-.31,0-.561-.179-.561-.4s.251-.4.561-.4.561.179.561.4S158.679,252.364,158.369,252.364Z" transform="translate(-146.612 -236.594)" fill="url(#linear-gradient-47)"/>
  <path id="Trazado_1770" data-name="Trazado 1770" d="M286.807,179.706c-.73,0-1.322.422-1.322.942s.592.942,1.322.942,1.322-.422,1.322-.942S287.538,179.706,286.807,179.706Zm0,1.342c-.31,0-.561-.179-.561-.4s.251-.4.561-.4.561.179.561.4S287.117,181.048,286.807,181.048Z" transform="translate(-266.515 -170.016)" fill="url(#linear-gradient-49)"/>
  <path id="Trazado_1771" data-name="Trazado 1771" d="M18.15,388.757c-.73,0-1.322.422-1.322.942s.592.942,1.322.942,1.322-.422,1.322-.942S18.88,388.757,18.15,388.757Zm0,1.341c-.31,0-.561-.179-.561-.4s.251-.4.561-.4.561.179.561.4S18.46,390.1,18.15,390.1Z" transform="translate(-15.71 -365.176)" fill="url(#linear-gradient-47)"/>
  <g id="Grupo_46" data-name="Grupo 46" transform="translate(6.772 10.123)">
    <ellipse id="Elipse_43" data-name="Elipse 43" cx="2.897" cy="2.041" rx="2.897" ry="2.041" fill="url(#linear-gradient-35)"/>
    <g id="Grupo_45" data-name="Grupo 45" transform="translate(1.365 0.345)">
      <circle id="Elipse_44" data-name="Elipse 44" cx="0.463" cy="0.463" r="0.463" transform="translate(0.762)" fill="url(#linear-gradient-52)"/>
      <circle id="Elipse_45" data-name="Elipse 45" cx="0.365" cy="0.365" r="0.365" transform="translate(0 1.294)" fill="url(#linear-gradient-53)"/>
      <circle id="Elipse_46" data-name="Elipse 46" cx="0.22" cy="0.22" r="0.22" transform="translate(1.738 1.746)" fill="url(#linear-gradient-54)"/>
    </g>
  </g>
  <path id="Trazado_1772" data-name="Trazado 1772" d="M276.377,136.595a1.43,1.43,0,0,0-1.564.351c-.062.08-.035.174.052.27a.212.212,0,0,1-.07.332l-.022.014c-.169.111-.13.306.075.38l.819.294c.206.074.453-.019.481-.18a.339.339,0,0,1,.344-.228.4.4,0,0,0,.31-.114C277.116,137.308,276.926,136.807,276.377,136.595Z" transform="translate(-256.415 -129.681)" fill="url(#linear-gradient-34)"/>
  <path id="Trazado_1773" data-name="Trazado 1773" d="M195.247,38.556a32.913,32.913,0,0,1,7.846,4.559c3.011,2.211,5.327,5.522,7.045,7.665.923,1.151,3.465.942,4.3-.37a3.728,3.728,0,0,0-.009-3.455,36.6,36.6,0,0,0-8.028-7.773,34.688,34.688,0,0,0-9.661-5.221,2.2,2.2,0,0,0-2.471,1.006A2.427,2.427,0,0,0,195.247,38.556Z" transform="translate(-180.975 -33.875)" fill="url(#linear-gradient-56)"/>
</svg>
