<svg xmlns="http://www.w3.org/2000/svg" width="13.596" height="11.516" viewBox="0 0 13.596 11.516">
  <g id="shopping-cart" transform="translate(0.203 0.202)">
    <path id="Trazado_1653" data-name="Trazado 1653" d="M12.993,44.012a.911.911,0,0,0-.717-.344H9.736L8.359,40.515a.386.386,0,1,0-.708.309l1.242,2.845H4.3l1.242-2.845a.386.386,0,1,0-.708-.309L3.453,43.669H.913a.911.911,0,0,0-.717.344.89.89,0,0,0-.173.757l1.356,5.925a.905.905,0,0,0,.89.7H10.92a.905.905,0,0,0,.89-.7l1.356-5.925A.89.89,0,0,0,12.993,44.012ZM10.92,50.624H2.269a.138.138,0,0,1-.137-.1L.776,44.6a.118.118,0,0,1,.024-.1.14.14,0,0,1,.113-.053h2.2l-.1.232a.386.386,0,1,0,.708.309l.236-.541H9.231l.236.541a.386.386,0,0,0,.708-.309l-.1-.232h2.2a.14.14,0,0,1,.113.053.118.118,0,0,1,.024.1l-1.356,5.925A.138.138,0,0,1,10.92,50.624Z" transform="translate(0 -40.283)" fill="#fff" stroke="#fff" stroke-width="0.4"/>
  </g>
</svg>
